<?xml version="1.0" encoding="utf-8" standalone="no"?>
<!DOCTYPE svg PUBLIC "-//W3C//DTD SVG 1.1//EN"
  "http://www.w3.org/Graphics/SVG/1.1/DTD/svg11.dtd">
<!-- Created with matplotlib (https://matplotlib.org/) -->
<svg height="345.6pt" version="1.1" viewBox="0 0 460.8 345.6" width="460.8pt" xmlns="http://www.w3.org/2000/svg" xmlns:xlink="http://www.w3.org/1999/xlink">
 <defs>
  <style type="text/css">
*{stroke-linecap:butt;stroke-linejoin:round;}
  </style>
 </defs>
 <g id="figure_1">
  <g id="patch_1">
   <path d="M 0 345.6 
L 460.8 345.6 
L 460.8 0 
L 0 0 
z
" style="fill:#ffffff;"/>
  </g>
  <g id="axes_1">
   <g id="patch_2">
    <path d="M 57.6 307.584 
L 414.72 307.584 
L 414.72 41.472 
L 57.6 41.472 
z
" style="fill:#eaeaf2;"/>
   </g>
   <g id="matplotlib.axis_1">
    <g id="xtick_1">
     <g id="line2d_1">
      <path clip-path="url(#p3f47ebba77)" d="M 83.371979 307.584 
L 83.371979 41.472 
" style="fill:none;stroke:#ffffff;stroke-linecap:round;"/>
     </g>
     <g id="text_1">
      <!-- 0 -->
      <defs>
       <path d="M 4.15625 35.296875 
Q 4.15625 48 6.765625 55.734375 
Q 9.375 63.484375 14.515625 67.671875 
Q 19.671875 71.875 27.484375 71.875 
Q 33.25 71.875 37.59375 69.546875 
Q 41.9375 67.234375 44.765625 62.859375 
Q 47.609375 58.5 49.21875 52.21875 
Q 50.828125 45.953125 50.828125 35.296875 
Q 50.828125 22.703125 48.234375 14.96875 
Q 45.65625 7.234375 40.5 3 
Q 35.359375 -1.21875 27.484375 -1.21875 
Q 17.140625 -1.21875 11.234375 6.203125 
Q 4.15625 15.140625 4.15625 35.296875 
z
M 13.1875 35.296875 
Q 13.1875 17.671875 17.3125 11.828125 
Q 21.4375 6 27.484375 6 
Q 33.546875 6 37.671875 11.859375 
Q 41.796875 17.71875 41.796875 35.296875 
Q 41.796875 52.984375 37.671875 58.78125 
Q 33.546875 64.59375 27.390625 64.59375 
Q 21.34375 64.59375 17.71875 59.46875 
Q 13.1875 52.9375 13.1875 35.296875 
z
" id="ArialMT-48"/>
      </defs>
      <g style="fill:#262626;" transform="translate(80.313464 324.957594)scale(0.11 -0.11)">
       <use xlink:href="#ArialMT-48"/>
      </g>
     </g>
    </g>
    <g id="xtick_2">
     <g id="line2d_2">
      <path clip-path="url(#p3f47ebba77)" d="M 124.471875 307.584 
L 124.471875 41.472 
" style="fill:none;stroke:#ffffff;stroke-linecap:round;"/>
     </g>
     <g id="text_2">
      <!-- 1 -->
      <defs>
       <path d="M 37.25 0 
L 28.46875 0 
L 28.46875 56 
Q 25.296875 52.984375 20.140625 49.953125 
Q 14.984375 46.921875 10.890625 45.40625 
L 10.890625 53.90625 
Q 18.265625 57.375 23.78125 62.296875 
Q 29.296875 67.234375 31.59375 71.875 
L 37.25 71.875 
z
" id="ArialMT-49"/>
      </defs>
      <g style="fill:#262626;" transform="translate(121.413359 324.957594)scale(0.11 -0.11)">
       <use xlink:href="#ArialMT-49"/>
      </g>
     </g>
    </g>
    <g id="xtick_3">
     <g id="line2d_3">
      <path clip-path="url(#p3f47ebba77)" d="M 165.57177 307.584 
L 165.57177 41.472 
" style="fill:none;stroke:#ffffff;stroke-linecap:round;"/>
     </g>
     <g id="text_3">
      <!-- 2 -->
      <defs>
       <path d="M 50.34375 8.453125 
L 50.34375 0 
L 3.03125 0 
Q 2.9375 3.171875 4.046875 6.109375 
Q 5.859375 10.9375 9.828125 15.625 
Q 13.8125 20.3125 21.34375 26.46875 
Q 33.015625 36.03125 37.109375 41.625 
Q 41.21875 47.21875 41.21875 52.203125 
Q 41.21875 57.421875 37.46875 61 
Q 33.734375 64.59375 27.734375 64.59375 
Q 21.390625 64.59375 17.578125 60.78125 
Q 13.765625 56.984375 13.71875 50.25 
L 4.6875 51.171875 
Q 5.609375 61.28125 11.65625 66.578125 
Q 17.71875 71.875 27.9375 71.875 
Q 38.234375 71.875 44.234375 66.15625 
Q 50.25 60.453125 50.25 52 
Q 50.25 47.703125 48.484375 43.546875 
Q 46.734375 39.40625 42.65625 34.8125 
Q 38.578125 30.21875 29.109375 22.21875 
Q 21.1875 15.578125 18.9375 13.203125 
Q 16.703125 10.84375 15.234375 8.453125 
z
" id="ArialMT-50"/>
      </defs>
      <g style="fill:#262626;" transform="translate(162.513254 324.957594)scale(0.11 -0.11)">
       <use xlink:href="#ArialMT-50"/>
      </g>
     </g>
    </g>
    <g id="xtick_4">
     <g id="line2d_4">
      <path clip-path="url(#p3f47ebba77)" d="M 206.671665 307.584 
L 206.671665 41.472 
" style="fill:none;stroke:#ffffff;stroke-linecap:round;"/>
     </g>
     <g id="text_4">
      <!-- 3 -->
      <defs>
       <path d="M 4.203125 18.890625 
L 12.984375 20.0625 
Q 14.5 12.59375 18.140625 9.296875 
Q 21.78125 6 27 6 
Q 33.203125 6 37.46875 10.296875 
Q 41.75 14.59375 41.75 20.953125 
Q 41.75 27 37.796875 30.921875 
Q 33.84375 34.859375 27.734375 34.859375 
Q 25.25 34.859375 21.53125 33.890625 
L 22.515625 41.609375 
Q 23.390625 41.5 23.921875 41.5 
Q 29.546875 41.5 34.03125 44.421875 
Q 38.53125 47.359375 38.53125 53.46875 
Q 38.53125 58.296875 35.25 61.46875 
Q 31.984375 64.65625 26.8125 64.65625 
Q 21.6875 64.65625 18.265625 61.421875 
Q 14.84375 58.203125 13.875 51.765625 
L 5.078125 53.328125 
Q 6.6875 62.15625 12.390625 67.015625 
Q 18.109375 71.875 26.609375 71.875 
Q 32.46875 71.875 37.390625 69.359375 
Q 42.328125 66.84375 44.9375 62.5 
Q 47.5625 58.15625 47.5625 53.265625 
Q 47.5625 48.640625 45.0625 44.828125 
Q 42.578125 41.015625 37.703125 38.765625 
Q 44.046875 37.3125 47.5625 32.6875 
Q 51.078125 28.078125 51.078125 21.140625 
Q 51.078125 11.765625 44.234375 5.25 
Q 37.40625 -1.265625 26.953125 -1.265625 
Q 17.53125 -1.265625 11.296875 4.34375 
Q 5.078125 9.96875 4.203125 18.890625 
z
" id="ArialMT-51"/>
      </defs>
      <g style="fill:#262626;" transform="translate(203.61315 324.957594)scale(0.11 -0.11)">
       <use xlink:href="#ArialMT-51"/>
      </g>
     </g>
    </g>
    <g id="xtick_5">
     <g id="line2d_5">
      <path clip-path="url(#p3f47ebba77)" d="M 247.77156 307.584 
L 247.77156 41.472 
" style="fill:none;stroke:#ffffff;stroke-linecap:round;"/>
     </g>
     <g id="text_5">
      <!-- 4 -->
      <defs>
       <path d="M 32.328125 0 
L 32.328125 17.140625 
L 1.265625 17.140625 
L 1.265625 25.203125 
L 33.9375 71.578125 
L 41.109375 71.578125 
L 41.109375 25.203125 
L 50.78125 25.203125 
L 50.78125 17.140625 
L 41.109375 17.140625 
L 41.109375 0 
z
M 32.328125 25.203125 
L 32.328125 57.46875 
L 9.90625 25.203125 
z
" id="ArialMT-52"/>
      </defs>
      <g style="fill:#262626;" transform="translate(244.713045 324.957594)scale(0.11 -0.11)">
       <use xlink:href="#ArialMT-52"/>
      </g>
     </g>
    </g>
    <g id="xtick_6">
     <g id="line2d_6">
      <path clip-path="url(#p3f47ebba77)" d="M 288.871456 307.584 
L 288.871456 41.472 
" style="fill:none;stroke:#ffffff;stroke-linecap:round;"/>
     </g>
     <g id="text_6">
      <!-- 5 -->
      <defs>
       <path d="M 4.15625 18.75 
L 13.375 19.53125 
Q 14.40625 12.796875 18.140625 9.390625 
Q 21.875 6 27.15625 6 
Q 33.5 6 37.890625 10.78125 
Q 42.28125 15.578125 42.28125 23.484375 
Q 42.28125 31 38.0625 35.34375 
Q 33.84375 39.703125 27 39.703125 
Q 22.75 39.703125 19.328125 37.765625 
Q 15.921875 35.84375 13.96875 32.765625 
L 5.71875 33.84375 
L 12.640625 70.609375 
L 48.25 70.609375 
L 48.25 62.203125 
L 19.671875 62.203125 
L 15.828125 42.96875 
Q 22.265625 47.46875 29.34375 47.46875 
Q 38.71875 47.46875 45.15625 40.96875 
Q 51.609375 34.46875 51.609375 24.265625 
Q 51.609375 14.546875 45.953125 7.46875 
Q 39.0625 -1.21875 27.15625 -1.21875 
Q 17.390625 -1.21875 11.203125 4.25 
Q 5.03125 9.71875 4.15625 18.75 
z
" id="ArialMT-53"/>
      </defs>
      <g style="fill:#262626;" transform="translate(285.81294 324.957594)scale(0.11 -0.11)">
       <use xlink:href="#ArialMT-53"/>
      </g>
     </g>
    </g>
    <g id="xtick_7">
     <g id="line2d_7">
      <path clip-path="url(#p3f47ebba77)" d="M 329.971351 307.584 
L 329.971351 41.472 
" style="fill:none;stroke:#ffffff;stroke-linecap:round;"/>
     </g>
     <g id="text_7">
      <!-- 6 -->
      <defs>
       <path d="M 49.75 54.046875 
L 41.015625 53.375 
Q 39.84375 58.546875 37.703125 60.890625 
Q 34.125 64.65625 28.90625 64.65625 
Q 24.703125 64.65625 21.53125 62.3125 
Q 17.390625 59.28125 14.984375 53.46875 
Q 12.59375 47.65625 12.5 36.921875 
Q 15.671875 41.75 20.265625 44.09375 
Q 24.859375 46.4375 29.890625 46.4375 
Q 38.671875 46.4375 44.84375 39.96875 
Q 51.03125 33.5 51.03125 23.25 
Q 51.03125 16.5 48.125 10.71875 
Q 45.21875 4.9375 40.140625 1.859375 
Q 35.0625 -1.21875 28.609375 -1.21875 
Q 17.625 -1.21875 10.6875 6.859375 
Q 3.765625 14.9375 3.765625 33.5 
Q 3.765625 54.25 11.421875 63.671875 
Q 18.109375 71.875 29.4375 71.875 
Q 37.890625 71.875 43.28125 67.140625 
Q 48.6875 62.40625 49.75 54.046875 
z
M 13.875 23.1875 
Q 13.875 18.65625 15.796875 14.5 
Q 17.71875 10.359375 21.1875 8.171875 
Q 24.65625 6 28.46875 6 
Q 34.03125 6 38.03125 10.484375 
Q 42.046875 14.984375 42.046875 22.703125 
Q 42.046875 30.125 38.078125 34.390625 
Q 34.125 38.671875 28.125 38.671875 
Q 22.171875 38.671875 18.015625 34.390625 
Q 13.875 30.125 13.875 23.1875 
z
" id="ArialMT-54"/>
      </defs>
      <g style="fill:#262626;" transform="translate(326.912835 324.957594)scale(0.11 -0.11)">
       <use xlink:href="#ArialMT-54"/>
      </g>
     </g>
    </g>
    <g id="xtick_8">
     <g id="line2d_8">
      <path clip-path="url(#p3f47ebba77)" d="M 371.071246 307.584 
L 371.071246 41.472 
" style="fill:none;stroke:#ffffff;stroke-linecap:round;"/>
     </g>
     <g id="text_8">
      <!-- 7 -->
      <defs>
       <path d="M 4.734375 62.203125 
L 4.734375 70.65625 
L 51.078125 70.65625 
L 51.078125 63.8125 
Q 44.234375 56.546875 37.515625 44.484375 
Q 30.8125 32.421875 27.15625 19.671875 
Q 24.515625 10.6875 23.78125 0 
L 14.75 0 
Q 14.890625 8.453125 18.0625 20.40625 
Q 21.234375 32.375 27.171875 43.484375 
Q 33.109375 54.59375 39.796875 62.203125 
z
" id="ArialMT-55"/>
      </defs>
      <g style="fill:#262626;" transform="translate(368.012731 324.957594)scale(0.11 -0.11)">
       <use xlink:href="#ArialMT-55"/>
      </g>
     </g>
    </g>
    <g id="xtick_9">
     <g id="line2d_9">
      <path clip-path="url(#p3f47ebba77)" d="M 412.171141 307.584 
L 412.171141 41.472 
" style="fill:none;stroke:#ffffff;stroke-linecap:round;"/>
     </g>
     <g id="text_9">
      <!-- 8 -->
      <defs>
       <path d="M 17.671875 38.8125 
Q 12.203125 40.828125 9.5625 44.53125 
Q 6.9375 48.25 6.9375 53.421875 
Q 6.9375 61.234375 12.546875 66.546875 
Q 18.171875 71.875 27.484375 71.875 
Q 36.859375 71.875 42.578125 66.421875 
Q 48.296875 60.984375 48.296875 53.171875 
Q 48.296875 48.1875 45.671875 44.5 
Q 43.0625 40.828125 37.75 38.8125 
Q 44.34375 36.671875 47.78125 31.875 
Q 51.21875 27.09375 51.21875 20.453125 
Q 51.21875 11.28125 44.71875 5.03125 
Q 38.234375 -1.21875 27.640625 -1.21875 
Q 17.046875 -1.21875 10.546875 5.046875 
Q 4.046875 11.328125 4.046875 20.703125 
Q 4.046875 27.6875 7.59375 32.390625 
Q 11.140625 37.109375 17.671875 38.8125 
z
M 15.921875 53.71875 
Q 15.921875 48.640625 19.1875 45.40625 
Q 22.46875 42.1875 27.6875 42.1875 
Q 32.765625 42.1875 36.015625 45.375 
Q 39.265625 48.578125 39.265625 53.21875 
Q 39.265625 58.0625 35.90625 61.359375 
Q 32.5625 64.65625 27.59375 64.65625 
Q 22.5625 64.65625 19.234375 61.421875 
Q 15.921875 58.203125 15.921875 53.71875 
z
M 13.09375 20.65625 
Q 13.09375 16.890625 14.875 13.375 
Q 16.65625 9.859375 20.171875 7.921875 
Q 23.6875 6 27.734375 6 
Q 34.03125 6 38.125 10.046875 
Q 42.234375 14.109375 42.234375 20.359375 
Q 42.234375 26.703125 38.015625 30.859375 
Q 33.796875 35.015625 27.4375 35.015625 
Q 21.234375 35.015625 17.15625 30.90625 
Q 13.09375 26.8125 13.09375 20.65625 
z
" id="ArialMT-56"/>
      </defs>
      <g style="fill:#262626;" transform="translate(409.112626 324.957594)scale(0.11 -0.11)">
       <use xlink:href="#ArialMT-56"/>
      </g>
     </g>
    </g>
    <g id="text_10">
     <!-- gain -->
     <defs>
      <path d="M 4.984375 -4.296875 
L 13.53125 -5.5625 
Q 14.0625 -9.515625 16.5 -11.328125 
Q 19.78125 -13.765625 25.4375 -13.765625 
Q 31.546875 -13.765625 34.859375 -11.328125 
Q 38.1875 -8.890625 39.359375 -4.5 
Q 40.046875 -1.8125 39.984375 6.78125 
Q 34.234375 0 25.640625 0 
Q 14.9375 0 9.078125 7.71875 
Q 3.21875 15.4375 3.21875 26.21875 
Q 3.21875 33.640625 5.90625 39.90625 
Q 8.59375 46.1875 13.6875 49.609375 
Q 18.796875 53.03125 25.6875 53.03125 
Q 34.859375 53.03125 40.828125 45.609375 
L 40.828125 51.859375 
L 48.921875 51.859375 
L 48.921875 7.03125 
Q 48.921875 -5.078125 46.453125 -10.125 
Q 44 -15.1875 38.640625 -18.109375 
Q 33.296875 -21.046875 25.484375 -21.046875 
Q 16.21875 -21.046875 10.5 -16.875 
Q 4.78125 -12.703125 4.984375 -4.296875 
z
M 12.25 26.859375 
Q 12.25 16.65625 16.296875 11.96875 
Q 20.359375 7.28125 26.46875 7.28125 
Q 32.515625 7.28125 36.609375 11.9375 
Q 40.71875 16.609375 40.71875 26.5625 
Q 40.71875 36.078125 36.5 40.90625 
Q 32.28125 45.75 26.3125 45.75 
Q 20.453125 45.75 16.34375 40.984375 
Q 12.25 36.234375 12.25 26.859375 
z
" id="ArialMT-103"/>
      <path d="M 40.4375 6.390625 
Q 35.546875 2.25 31.03125 0.53125 
Q 26.515625 -1.171875 21.34375 -1.171875 
Q 12.796875 -1.171875 8.203125 3 
Q 3.609375 7.171875 3.609375 13.671875 
Q 3.609375 17.484375 5.34375 20.625 
Q 7.078125 23.78125 9.890625 25.6875 
Q 12.703125 27.59375 16.21875 28.5625 
Q 18.796875 29.25 24.03125 29.890625 
Q 34.671875 31.15625 39.703125 32.90625 
Q 39.75 34.71875 39.75 35.203125 
Q 39.75 40.578125 37.25 42.78125 
Q 33.890625 45.75 27.25 45.75 
Q 21.046875 45.75 18.09375 43.578125 
Q 15.140625 41.40625 13.71875 35.890625 
L 5.125 37.0625 
Q 6.296875 42.578125 8.984375 45.96875 
Q 11.671875 49.359375 16.75 51.1875 
Q 21.828125 53.03125 28.515625 53.03125 
Q 35.15625 53.03125 39.296875 51.46875 
Q 43.453125 49.90625 45.40625 47.53125 
Q 47.359375 45.171875 48.140625 41.546875 
Q 48.578125 39.3125 48.578125 33.453125 
L 48.578125 21.734375 
Q 48.578125 9.46875 49.140625 6.21875 
Q 49.703125 2.984375 51.375 0 
L 42.1875 0 
Q 40.828125 2.734375 40.4375 6.390625 
z
M 39.703125 26.03125 
Q 34.90625 24.078125 25.34375 22.703125 
Q 19.921875 21.921875 17.671875 20.9375 
Q 15.4375 19.96875 14.203125 18.09375 
Q 12.984375 16.21875 12.984375 13.921875 
Q 12.984375 10.40625 15.640625 8.0625 
Q 18.3125 5.71875 23.4375 5.71875 
Q 28.515625 5.71875 32.46875 7.9375 
Q 36.421875 10.15625 38.28125 14.015625 
Q 39.703125 17 39.703125 22.796875 
z
" id="ArialMT-97"/>
      <path d="M 6.640625 61.46875 
L 6.640625 71.578125 
L 15.4375 71.578125 
L 15.4375 61.46875 
z
M 6.640625 0 
L 6.640625 51.859375 
L 15.4375 51.859375 
L 15.4375 0 
z
" id="ArialMT-105"/>
      <path d="M 6.59375 0 
L 6.59375 51.859375 
L 14.5 51.859375 
L 14.5 44.484375 
Q 20.21875 53.03125 31 53.03125 
Q 35.6875 53.03125 39.625 51.34375 
Q 43.5625 49.65625 45.515625 46.921875 
Q 47.46875 44.1875 48.25 40.4375 
Q 48.734375 37.984375 48.734375 31.890625 
L 48.734375 0 
L 39.9375 0 
L 39.9375 31.546875 
Q 39.9375 36.921875 38.90625 39.578125 
Q 37.890625 42.234375 35.28125 43.8125 
Q 32.671875 45.40625 29.15625 45.40625 
Q 23.53125 45.40625 19.453125 41.84375 
Q 15.375 38.28125 15.375 28.328125 
L 15.375 0 
z
" id="ArialMT-110"/>
     </defs>
     <g style="fill:#262626;" transform="translate(224.817187 339.733219)scale(0.12 -0.12)">
      <use xlink:href="#ArialMT-103"/>
      <use x="55.615234" xlink:href="#ArialMT-97"/>
      <use x="111.230469" xlink:href="#ArialMT-105"/>
      <use x="133.447266" xlink:href="#ArialMT-110"/>
     </g>
    </g>
   </g>
   <g id="matplotlib.axis_2">
    <g id="ytick_1">
     <g id="line2d_10">
      <path clip-path="url(#p3f47ebba77)" d="M 57.6 307.584 
L 414.72 307.584 
" style="fill:none;stroke:#ffffff;stroke-linecap:round;"/>
     </g>
     <g id="text_11">
      <!-- 0.0 -->
      <defs>
       <path d="M 9.078125 0 
L 9.078125 10.015625 
L 19.09375 10.015625 
L 19.09375 0 
z
" id="ArialMT-46"/>
      </defs>
      <g style="fill:#262626;" transform="translate(32.81 311.520797)scale(0.11 -0.11)">
       <use xlink:href="#ArialMT-48"/>
       <use x="55.615234" xlink:href="#ArialMT-46"/>
       <use x="83.398438" xlink:href="#ArialMT-48"/>
      </g>
     </g>
    </g>
    <g id="ytick_2">
     <g id="line2d_11">
      <path clip-path="url(#p3f47ebba77)" d="M 57.6 251.81809 
L 414.72 251.81809 
" style="fill:none;stroke:#ffffff;stroke-linecap:round;"/>
     </g>
     <g id="text_12">
      <!-- 0.5 -->
      <g style="fill:#262626;" transform="translate(32.81 255.754887)scale(0.11 -0.11)">
       <use xlink:href="#ArialMT-48"/>
       <use x="55.615234" xlink:href="#ArialMT-46"/>
       <use x="83.398438" xlink:href="#ArialMT-53"/>
      </g>
     </g>
    </g>
    <g id="ytick_3">
     <g id="line2d_12">
      <path clip-path="url(#p3f47ebba77)" d="M 57.6 196.052179 
L 414.72 196.052179 
" style="fill:none;stroke:#ffffff;stroke-linecap:round;"/>
     </g>
     <g id="text_13">
      <!-- 1.0 -->
      <g style="fill:#262626;" transform="translate(32.81 199.988976)scale(0.11 -0.11)">
       <use xlink:href="#ArialMT-49"/>
       <use x="55.615234" xlink:href="#ArialMT-46"/>
       <use x="83.398438" xlink:href="#ArialMT-48"/>
      </g>
     </g>
    </g>
    <g id="ytick_4">
     <g id="line2d_13">
      <path clip-path="url(#p3f47ebba77)" d="M 57.6 140.286269 
L 414.72 140.286269 
" style="fill:none;stroke:#ffffff;stroke-linecap:round;"/>
     </g>
     <g id="text_14">
      <!-- 1.5 -->
      <g style="fill:#262626;" transform="translate(32.81 144.223066)scale(0.11 -0.11)">
       <use xlink:href="#ArialMT-49"/>
       <use x="55.615234" xlink:href="#ArialMT-46"/>
       <use x="83.398438" xlink:href="#ArialMT-53"/>
      </g>
     </g>
    </g>
    <g id="ytick_5">
     <g id="line2d_14">
      <path clip-path="url(#p3f47ebba77)" d="M 57.6 84.520359 
L 414.72 84.520359 
" style="fill:none;stroke:#ffffff;stroke-linecap:round;"/>
     </g>
     <g id="text_15">
      <!-- 2.0 -->
      <g style="fill:#262626;" transform="translate(32.81 88.457156)scale(0.11 -0.11)">
       <use xlink:href="#ArialMT-50"/>
       <use x="55.615234" xlink:href="#ArialMT-46"/>
       <use x="83.398438" xlink:href="#ArialMT-48"/>
      </g>
     </g>
    </g>
    <g id="text_16">
     <!-- prob. dens. -->
     <defs>
      <path d="M 6.59375 -19.875 
L 6.59375 51.859375 
L 14.59375 51.859375 
L 14.59375 45.125 
Q 17.4375 49.078125 21 51.046875 
Q 24.5625 53.03125 29.640625 53.03125 
Q 36.28125 53.03125 41.359375 49.609375 
Q 46.4375 46.1875 49.015625 39.953125 
Q 51.609375 33.734375 51.609375 26.3125 
Q 51.609375 18.359375 48.75 11.984375 
Q 45.90625 5.609375 40.453125 2.21875 
Q 35.015625 -1.171875 29 -1.171875 
Q 24.609375 -1.171875 21.109375 0.6875 
Q 17.625 2.546875 15.375 5.375 
L 15.375 -19.875 
z
M 14.546875 25.640625 
Q 14.546875 15.625 18.59375 10.84375 
Q 22.65625 6.0625 28.421875 6.0625 
Q 34.28125 6.0625 38.453125 11.015625 
Q 42.625 15.96875 42.625 26.375 
Q 42.625 36.28125 38.546875 41.203125 
Q 34.46875 46.140625 28.8125 46.140625 
Q 23.1875 46.140625 18.859375 40.890625 
Q 14.546875 35.640625 14.546875 25.640625 
z
" id="ArialMT-112"/>
      <path d="M 6.5 0 
L 6.5 51.859375 
L 14.40625 51.859375 
L 14.40625 44 
Q 17.4375 49.515625 20 51.265625 
Q 22.5625 53.03125 25.640625 53.03125 
Q 30.078125 53.03125 34.671875 50.203125 
L 31.640625 42.046875 
Q 28.421875 43.953125 25.203125 43.953125 
Q 22.3125 43.953125 20.015625 42.21875 
Q 17.71875 40.484375 16.75 37.40625 
Q 15.28125 32.71875 15.28125 27.15625 
L 15.28125 0 
z
" id="ArialMT-114"/>
      <path d="M 3.328125 25.921875 
Q 3.328125 40.328125 11.328125 47.265625 
Q 18.015625 53.03125 27.640625 53.03125 
Q 38.328125 53.03125 45.109375 46.015625 
Q 51.90625 39.015625 51.90625 26.65625 
Q 51.90625 16.65625 48.90625 10.90625 
Q 45.90625 5.171875 40.15625 2 
Q 34.421875 -1.171875 27.640625 -1.171875 
Q 16.75 -1.171875 10.03125 5.8125 
Q 3.328125 12.796875 3.328125 25.921875 
z
M 12.359375 25.921875 
Q 12.359375 15.96875 16.703125 11.015625 
Q 21.046875 6.0625 27.640625 6.0625 
Q 34.1875 6.0625 38.53125 11.03125 
Q 42.875 16.015625 42.875 26.21875 
Q 42.875 35.84375 38.5 40.796875 
Q 34.125 45.75 27.640625 45.75 
Q 21.046875 45.75 16.703125 40.8125 
Q 12.359375 35.890625 12.359375 25.921875 
z
" id="ArialMT-111"/>
      <path d="M 14.703125 0 
L 6.546875 0 
L 6.546875 71.578125 
L 15.328125 71.578125 
L 15.328125 46.046875 
Q 20.90625 53.03125 29.546875 53.03125 
Q 34.328125 53.03125 38.59375 51.09375 
Q 42.875 49.171875 45.625 45.671875 
Q 48.390625 42.1875 49.953125 37.25 
Q 51.515625 32.328125 51.515625 26.703125 
Q 51.515625 13.375 44.921875 6.09375 
Q 38.328125 -1.171875 29.109375 -1.171875 
Q 19.921875 -1.171875 14.703125 6.5 
z
M 14.59375 26.3125 
Q 14.59375 17 17.140625 12.84375 
Q 21.296875 6.0625 28.375 6.0625 
Q 34.125 6.0625 38.328125 11.0625 
Q 42.53125 16.0625 42.53125 25.984375 
Q 42.53125 36.140625 38.5 40.96875 
Q 34.46875 45.796875 28.765625 45.796875 
Q 23 45.796875 18.796875 40.796875 
Q 14.59375 35.796875 14.59375 26.3125 
z
" id="ArialMT-98"/>
      <path id="ArialMT-32"/>
      <path d="M 40.234375 0 
L 40.234375 6.546875 
Q 35.296875 -1.171875 25.734375 -1.171875 
Q 19.53125 -1.171875 14.328125 2.25 
Q 9.125 5.671875 6.265625 11.796875 
Q 3.421875 17.921875 3.421875 25.875 
Q 3.421875 33.640625 6 39.96875 
Q 8.59375 46.296875 13.765625 49.65625 
Q 18.953125 53.03125 25.34375 53.03125 
Q 30.03125 53.03125 33.6875 51.046875 
Q 37.359375 49.078125 39.65625 45.90625 
L 39.65625 71.578125 
L 48.390625 71.578125 
L 48.390625 0 
z
M 12.453125 25.875 
Q 12.453125 15.921875 16.640625 10.984375 
Q 20.84375 6.0625 26.5625 6.0625 
Q 32.328125 6.0625 36.34375 10.765625 
Q 40.375 15.484375 40.375 25.140625 
Q 40.375 35.796875 36.265625 40.765625 
Q 32.171875 45.75 26.171875 45.75 
Q 20.3125 45.75 16.375 40.96875 
Q 12.453125 36.1875 12.453125 25.875 
z
" id="ArialMT-100"/>
      <path d="M 42.09375 16.703125 
L 51.171875 15.578125 
Q 49.03125 7.625 43.21875 3.21875 
Q 37.40625 -1.171875 28.375 -1.171875 
Q 17 -1.171875 10.328125 5.828125 
Q 3.65625 12.84375 3.65625 25.484375 
Q 3.65625 38.578125 10.390625 45.796875 
Q 17.140625 53.03125 27.875 53.03125 
Q 38.28125 53.03125 44.875 45.953125 
Q 51.46875 38.875 51.46875 26.03125 
Q 51.46875 25.25 51.421875 23.6875 
L 12.75 23.6875 
Q 13.234375 15.140625 17.578125 10.59375 
Q 21.921875 6.0625 28.421875 6.0625 
Q 33.25 6.0625 36.671875 8.59375 
Q 40.09375 11.140625 42.09375 16.703125 
z
M 13.234375 30.90625 
L 42.1875 30.90625 
Q 41.609375 37.453125 38.875 40.71875 
Q 34.671875 45.796875 27.984375 45.796875 
Q 21.921875 45.796875 17.796875 41.75 
Q 13.671875 37.703125 13.234375 30.90625 
z
" id="ArialMT-101"/>
      <path d="M 3.078125 15.484375 
L 11.765625 16.84375 
Q 12.5 11.625 15.84375 8.84375 
Q 19.1875 6.0625 25.203125 6.0625 
Q 31.25 6.0625 34.171875 8.515625 
Q 37.109375 10.984375 37.109375 14.3125 
Q 37.109375 17.28125 34.515625 19 
Q 32.71875 20.171875 25.53125 21.96875 
Q 15.875 24.421875 12.140625 26.203125 
Q 8.40625 27.984375 6.46875 31.125 
Q 4.546875 34.28125 4.546875 38.09375 
Q 4.546875 41.546875 6.125 44.5 
Q 7.71875 47.46875 10.453125 49.421875 
Q 12.5 50.921875 16.03125 51.96875 
Q 19.578125 53.03125 23.640625 53.03125 
Q 29.734375 53.03125 34.34375 51.265625 
Q 38.96875 49.515625 41.15625 46.5 
Q 43.359375 43.5 44.1875 38.484375 
L 35.59375 37.3125 
Q 35.015625 41.3125 32.203125 43.546875 
Q 29.390625 45.796875 24.265625 45.796875 
Q 18.21875 45.796875 15.625 43.796875 
Q 13.03125 41.796875 13.03125 39.109375 
Q 13.03125 37.40625 14.109375 36.03125 
Q 15.1875 34.625 17.484375 33.6875 
Q 18.796875 33.203125 25.25 31.453125 
Q 34.578125 28.953125 38.25 27.359375 
Q 41.9375 25.78125 44.03125 22.75 
Q 46.140625 19.734375 46.140625 15.234375 
Q 46.140625 10.84375 43.578125 6.953125 
Q 41.015625 3.078125 36.171875 0.953125 
Q 31.34375 -1.171875 25.25 -1.171875 
Q 15.140625 -1.171875 9.84375 3.03125 
Q 4.546875 7.234375 3.078125 15.484375 
z
" id="ArialMT-115"/>
     </defs>
     <g style="fill:#262626;" transform="translate(26.425 204.545812)rotate(-90)scale(0.12 -0.12)">
      <use xlink:href="#ArialMT-112"/>
      <use x="55.615234" xlink:href="#ArialMT-114"/>
      <use x="88.916016" xlink:href="#ArialMT-111"/>
      <use x="144.53125" xlink:href="#ArialMT-98"/>
      <use x="200.146484" xlink:href="#ArialMT-46"/>
      <use x="227.929688" xlink:href="#ArialMT-32"/>
      <use x="255.712891" xlink:href="#ArialMT-100"/>
      <use x="311.328125" xlink:href="#ArialMT-101"/>
      <use x="366.943359" xlink:href="#ArialMT-110"/>
      <use x="422.558594" xlink:href="#ArialMT-115"/>
      <use x="472.558594" xlink:href="#ArialMT-46"/>
     </g>
    </g>
   </g>
   <g id="line2d_15">
    <path clip-path="url(#p3f47ebba77)" d="M 99.123195 307.555099 
L 100.531951 307.411354 
L 101.471122 307.080496 
L 102.410293 306.372413 
L 103.349464 305.148601 
L 104.288635 303.387668 
L 105.227806 301.114032 
L 106.166978 298.124769 
L 107.106149 293.782228 
L 108.04532 287.187894 
L 108.984491 277.626554 
L 109.923662 264.829313 
L 110.862833 248.891736 
L 112.271589 219.931144 
L 117.906616 94.423051 
L 119.315372 68.92385 
L 119.784958 62.52171 
L 120.254543 57.774403 
L 120.724129 54.944584 
L 121.193714 54.144 
L 121.6633 55.313671 
L 122.132886 58.244221 
L 122.602471 62.628875 
L 123.541642 74.448991 
L 124.950399 96.28614 
L 127.298326 133.850384 
L 128.237497 145.722521 
L 131.055011 177.558912 
L 132.933353 203.120852 
L 136.220451 249.546139 
L 137.159622 258.475748 
L 138.098794 264.367772 
L 141.385892 280.127831 
L 143.73382 293.513031 
L 144.672991 297.925182 
L 145.612162 301.411186 
L 146.551333 303.870034 
L 147.490504 305.426573 
L 148.429675 306.328914 
L 149.368846 306.779218 
L 150.308017 306.898816 
L 153.595116 306.73072 
L 157.821386 307.541867 
L 158.760557 307.561979 
L 158.760557 307.561979 
" style="fill:none;stroke:#0800f6;stroke-linecap:round;stroke-width:1.5;"/>
   </g>
   <g id="line2d_16">
    <path clip-path="url(#p3f47ebba77)" d="M 94.627131 307.564873 
L 96.81916 307.463965 
L 97.915174 307.258369 
L 99.011189 306.795953 
L 99.559196 306.403753 
L 100.107204 305.856136 
L 100.655211 305.107776 
L 101.203218 304.106687 
L 101.751225 302.796408 
L 102.299233 301.11977 
L 102.84724 299.023986 
L 103.943255 293.418842 
L 105.039269 285.830932 
L 106.135284 276.34936 
L 107.231298 265.105142 
L 108.327313 251.994104 
L 109.423327 236.65573 
L 111.067349 209.297565 
L 113.807386 161.355681 
L 114.9034 145.916789 
L 115.999415 133.621524 
L 117.095429 124.135613 
L 118.191444 116.981165 
L 118.739451 114.222141 
L 119.287458 112.060467 
L 119.835466 110.588732 
L 120.383473 109.925312 
L 120.93148 110.186019 
L 121.479488 111.449817 
L 122.027495 113.728263 
L 122.575502 116.948856 
L 123.671517 125.550722 
L 133.535648 215.614828 
L 135.17967 230.223699 
L 136.275684 238.047028 
L 143.399779 282.152421 
L 144.495793 287.040175 
L 145.591808 290.786381 
L 146.687822 293.631923 
L 147.783837 295.838916 
L 148.879852 297.59157 
L 149.975866 299.002063 
L 151.619888 300.687103 
L 154.359924 303.062135 
L 157.099961 305.167881 
L 158.743983 306.245974 
L 160.388004 307.02608 
L 161.484019 307.327968 
L 163.128041 307.525498 
L 164.224055 307.561899 
L 164.224055 307.561899 
" style="fill:none;stroke:#1100ee;stroke-linecap:round;stroke-width:1.5;"/>
   </g>
   <g id="line2d_17">
    <path clip-path="url(#p3f47ebba77)" d="M 90.643838 307.555573 
L 92.804219 307.380604 
L 94.244473 306.935862 
L 94.9646 306.501385 
L 95.684727 305.850161 
L 96.404854 304.915646 
L 97.124982 303.627793 
L 97.845109 301.917266 
L 98.565236 299.71864 
L 99.285363 296.971642 
L 100.00549 293.620455 
L 100.725617 289.612272 
L 101.445744 284.897255 
L 102.885998 273.189388 
L 104.326253 258.420238 
L 106.486634 232.159086 
L 108.647015 206.32065 
L 110.087269 192.164082 
L 111.527524 180.465152 
L 115.128159 154.154481 
L 115.848286 149.540893 
L 116.568413 145.650981 
L 117.28854 142.725365 
L 118.008668 140.926577 
L 118.728795 140.315666 
L 119.448922 140.853421 
L 120.169049 142.422285 
L 120.889176 144.860316 
L 121.609303 147.996342 
L 123.049557 155.774119 
L 125.209939 169.597482 
L 128.090447 188.271689 
L 130.250828 201.829246 
L 131.691083 211.963436 
L 136.011845 244.526241 
L 137.452099 253.467481 
L 138.892354 260.805437 
L 140.332608 266.509074 
L 141.772862 271.053048 
L 144.65337 279.706873 
L 146.813752 286.333457 
L 148.254006 289.936208 
L 149.69426 292.632986 
L 151.854642 295.754665 
L 156.175404 301.849842 
L 157.615658 303.347246 
L 159.055913 304.405422 
L 160.496167 305.165522 
L 163.376675 306.380932 
L 165.537057 307.063887 
L 166.977311 307.293844 
L 168.417565 307.331848 
L 171.298073 307.077424 
L 173.458455 306.978964 
L 175.618836 307.148562 
L 179.219472 307.503629 
L 182.09998 307.565437 
L 182.09998 307.565437 
" style="fill:none;stroke:#1a00e6;stroke-linecap:round;stroke-width:1.5;"/>
   </g>
   <g id="line2d_18">
    <path clip-path="url(#p3f47ebba77)" d="M 83.803931 307.553312 
L 85.651571 307.440776 
L 86.575392 307.286311 
L 87.499212 307.000314 
L 88.423032 306.504164 
L 89.346853 305.694832 
L 90.270673 304.449585 
L 91.194494 302.636225 
L 92.118314 300.127312 
L 93.042134 296.815253 
L 93.965955 292.624651 
L 94.889775 287.519393 
L 95.813595 281.503884 
L 97.661236 266.940447 
L 99.508877 249.615635 
L 103.204158 210.96681 
L 105.051799 192.2327 
L 106.89944 175.987461 
L 107.82326 169.331176 
L 108.747081 163.857302 
L 109.670901 159.618453 
L 110.594721 156.587401 
L 111.518542 154.692864 
L 112.442362 153.866479 
L 113.366183 154.074139 
L 114.290003 155.31486 
L 115.213823 157.591754 
L 116.137644 160.877363 
L 117.061464 165.09656 
L 117.985284 170.13449 
L 119.832925 182.125555 
L 124.452027 215.225029 
L 125.375847 220.678068 
L 126.299668 225.438297 
L 128.147309 233.295548 
L 132.76641 251.087022 
L 136.461692 266.130391 
L 138.309333 272.412767 
L 140.156973 277.351715 
L 142.004614 281.275758 
L 149.395177 295.246413 
L 150.318998 296.718803 
L 151.242818 297.93527 
L 152.166638 298.846271 
L 153.090459 299.447054 
L 154.014279 299.78584 
L 157.709561 300.503863 
L 159.557201 301.389585 
L 161.404842 302.387657 
L 163.252483 303.069448 
L 165.100124 303.367176 
L 167.871585 303.695669 
L 169.719225 304.176302 
L 176.185968 306.252402 
L 179.88125 307.002654 
L 182.652711 307.302426 
L 184.500351 307.272461 
L 187.271813 306.880679 
L 189.119453 306.594768 
L 190.967094 306.530636 
L 192.814735 306.743087 
L 196.510016 307.359301 
L 199.281478 307.543665 
L 201.129118 307.564823 
L 201.129118 307.564823 
" style="fill:none;stroke:#2200dd;stroke-linecap:round;stroke-width:1.5;"/>
   </g>
   <g id="line2d_19">
    <path clip-path="url(#p3f47ebba77)" d="M 85.460143 307.552049 
L 87.497614 307.415201 
L 88.51635 307.220618 
L 89.535086 306.850998 
L 90.553821 306.195882 
L 91.572557 305.107351 
L 92.591293 303.403156 
L 93.610028 300.875013 
L 94.628764 297.300385 
L 95.6475 292.456954 
L 96.666236 286.141878 
L 97.684971 278.199908 
L 98.703707 268.562432 
L 99.722443 257.292889 
L 101.759914 230.99117 
L 103.797385 203.359603 
L 104.816121 190.860241 
L 105.834857 180.172377 
L 106.853592 171.764146 
L 107.872328 165.804718 
L 108.891064 162.151794 
L 109.909799 160.43107 
L 110.928535 160.181632 
L 111.947271 161.004756 
L 112.966006 162.649415 
L 113.984742 165.002915 
L 115.003478 168.009156 
L 117.040949 175.52602 
L 120.097156 187.514109 
L 125.190835 206.162629 
L 127.228306 215.151859 
L 129.265777 225.315892 
L 134.359456 252.921738 
L 135.378191 257.505746 
L 136.396927 261.471332 
L 137.415663 264.885975 
L 139.453134 270.709449 
L 144.546813 284.06564 
L 146.584284 288.767674 
L 149.640491 295.147769 
L 151.677962 298.702879 
L 152.696698 300.069326 
L 153.715434 301.088676 
L 154.734169 301.747147 
L 155.752905 302.067996 
L 156.771641 302.108051 
L 158.809112 301.705515 
L 159.827848 301.482003 
L 160.846584 301.385285 
L 161.865319 301.486346 
L 162.884055 301.804907 
L 164.921526 302.90929 
L 166.958998 304.093016 
L 168.996469 304.961059 
L 173.071412 306.207627 
L 175.108883 306.720125 
L 177.146354 307.007885 
L 179.183826 307.052049 
L 186.314976 306.92936 
L 189.371183 307.028534 
L 196.502332 307.491864 
L 199.558539 307.362339 
L 203.633482 307.079442 
L 205.670954 307.111819 
L 213.820839 307.566182 
L 214.839575 307.566746 
L 214.839575 307.566746 
" style="fill:none;stroke:#2a00d4;stroke-linecap:round;stroke-width:1.5;"/>
   </g>
   <g id="line2d_20">
    <path clip-path="url(#p3f47ebba77)" d="M 83.126911 307.55307 
L 84.942444 307.45964 
L 86.757977 307.129917 
L 87.665744 306.769285 
L 88.57351 306.181245 
L 89.481277 305.262995 
L 90.389043 303.887945 
L 91.29681 301.910756 
L 92.204576 299.177262 
L 93.112343 295.538815 
L 94.02011 290.869398 
L 94.927876 285.082897 
L 95.835643 278.147771 
L 96.743409 270.097111 
L 98.558942 251.129337 
L 103.097775 199.034343 
L 104.005542 190.473671 
L 104.913308 183.209307 
L 105.821075 177.375244 
L 106.728841 173.002062 
L 107.636608 170.029862 
L 108.544374 168.332394 
L 109.452141 167.743035 
L 110.359907 168.074946 
L 111.267674 169.133329 
L 112.17544 170.723805 
L 113.990974 174.80065 
L 116.714273 181.771704 
L 117.62204 184.428021 
L 118.529806 187.433197 
L 119.437573 190.875543 
L 121.253106 199.050719 
L 124.884172 216.987947 
L 126.699705 224.94885 
L 133.961837 254.334211 
L 136.685137 264.822511 
L 138.50067 270.812013 
L 140.316203 275.601522 
L 142.131736 279.319711 
L 143.947269 282.403992 
L 146.670569 286.486554 
L 148.486102 288.850206 
L 150.301635 290.878791 
L 154.840468 295.31436 
L 159.379301 300.021342 
L 162.1026 302.733149 
L 163.918133 304.202867 
L 165.733666 305.262209 
L 167.5492 305.904789 
L 169.364733 306.212024 
L 172.088032 306.295741 
L 175.719098 306.287721 
L 178.442398 306.530521 
L 182.073464 306.967043 
L 184.796764 307.05621 
L 188.42783 307.114316 
L 197.505496 307.567138 
L 198.413262 307.565662 
L 198.413262 307.565662 
" style="fill:none;stroke:#3300cc;stroke-linecap:round;stroke-width:1.5;"/>
   </g>
   <g id="line2d_21">
    <path clip-path="url(#p3f47ebba77)" d="M 81.802748 307.568275 
L 84.90781 307.381342 
L 86.460341 306.96421 
L 88.012872 305.923476 
L 89.565403 303.670901 
L 91.117934 299.430899 
L 92.670465 292.463613 
L 94.222997 282.406107 
L 95.775528 269.528028 
L 98.88059 239.084512 
L 100.433121 223.782921 
L 101.985652 209.664773 
L 103.538183 197.406215 
L 105.090714 187.58707 
L 106.643245 180.664661 
L 108.195777 176.750415 
L 109.748308 175.354535 
L 111.300839 175.455788 
L 112.85337 176.065106 
L 114.405901 176.915412 
L 115.958432 178.624867 
L 117.510963 182.109028 
L 119.063494 187.763048 
L 120.616026 195.138981 
L 123.721088 211.359389 
L 125.273619 218.869594 
L 126.82615 225.726737 
L 129.931212 238.117537 
L 133.036274 250.552968 
L 137.693868 270.374655 
L 139.246399 275.934654 
L 140.79893 280.259271 
L 142.351461 283.32462 
L 143.903992 285.502762 
L 147.009055 289.237333 
L 151.666648 295.409072 
L 153.219179 297.130858 
L 154.77171 298.514116 
L 156.324241 299.587263 
L 164.086897 303.857613 
L 165.639428 304.525024 
L 167.191959 304.91465 
L 168.74449 304.99045 
L 173.402083 304.504816 
L 174.954615 304.628424 
L 176.507146 304.979428 
L 181.164739 306.405445 
L 182.71727 306.66682 
L 184.269801 306.738679 
L 187.374864 306.461819 
L 188.927395 306.295415 
L 190.479926 306.243418 
L 192.032457 306.348018 
L 196.69005 306.998481 
L 199.795112 307.065465 
L 202.900175 307.109495 
L 210.66283 307.542178 
L 213.767892 307.473899 
L 219.978017 307.087709 
L 223.083079 307.219277 
L 227.740673 307.522981 
L 233.950797 307.58351 
L 260.343826 307.526755 
L 265.001419 307.225599 
L 268.106482 307.08519 
L 271.211544 307.245689 
L 275.869137 307.534972 
L 278.974199 307.575443 
L 278.974199 307.575443 
" style="fill:none;stroke:#3c00c3;stroke-linecap:round;stroke-width:1.5;"/>
   </g>
   <g id="line2d_22">
    <path clip-path="url(#p3f47ebba77)" d="M 80.412021 307.556848 
L 82.453471 307.459123 
L 84.494921 307.085988 
L 85.515646 306.665234 
L 86.536371 305.971422 
L 87.557096 304.882872 
L 88.577821 303.251858 
L 89.598546 300.90975 
L 90.619271 297.676588 
L 91.639996 293.376127 
L 92.660721 287.857397 
L 93.681445 281.022552 
L 94.70217 272.857976 
L 96.74362 253.059346 
L 100.82652 209.27711 
L 101.847245 199.939948 
L 102.86797 191.877629 
L 103.888695 185.205008 
L 104.90942 179.930933 
L 105.930144 175.988927 
L 106.950869 173.267412 
L 107.971594 171.631138 
L 108.992319 170.933478 
L 110.013044 171.025527 
L 111.033769 171.768815 
L 112.054494 173.05391 
L 113.075219 174.820611 
L 114.095944 177.070597 
L 115.116669 179.86301 
L 116.137394 183.287697 
L 117.158119 187.41899 
L 118.178844 192.262693 
L 120.220293 203.567119 
L 122.261743 215.317487 
L 124.303193 225.739854 
L 127.365368 239.160389 
L 130.427543 251.74513 
L 132.468992 258.93959 
L 134.510442 265.038807 
L 140.634792 282.426205 
L 141.655517 284.761352 
L 142.676242 286.666749 
L 143.696967 288.112391 
L 144.717691 289.126398 
L 145.738416 289.78885 
L 147.779866 290.545932 
L 148.800591 290.9018 
L 149.821316 291.382503 
L 150.842041 292.040929 
L 152.883491 293.862706 
L 155.945666 296.979434 
L 157.987115 298.636414 
L 160.028565 299.81472 
L 162.070015 300.656645 
L 166.152915 301.937698 
L 170.235814 303.106223 
L 172.277264 303.489438 
L 174.318714 303.657269 
L 179.422339 303.750182 
L 184.525963 303.688641 
L 185.546688 303.840048 
L 187.588138 304.494061 
L 191.671038 306.342453 
L 193.712488 306.876107 
L 195.753937 307.05477 
L 201.878287 307.24828 
L 206.981912 307.539121 
L 210.044086 307.568335 
L 210.044086 307.568335 
" style="fill:none;stroke:#4400bb;stroke-linecap:round;stroke-width:1.5;"/>
   </g>
   <g id="line2d_23">
    <path clip-path="url(#p3f47ebba77)" d="M 80.119186 307.558443 
L 82.367212 307.434197 
L 83.491225 307.242206 
L 84.615238 306.853407 
L 85.739251 306.120213 
L 86.863264 304.830462 
L 87.987277 302.7117 
L 89.111291 299.458059 
L 90.235304 294.783362 
L 91.359317 288.49379 
L 92.48333 280.560747 
L 93.607343 271.16568 
L 95.855369 249.647832 
L 98.103395 227.847112 
L 100.351421 208.337771 
L 102.599448 191.469544 
L 103.723461 184.084568 
L 104.847474 177.658064 
L 105.971487 172.529787 
L 107.0955 169.058512 
L 108.219513 167.505571 
L 109.343526 167.937725 
L 110.467539 170.189127 
L 111.591552 173.898412 
L 112.715566 178.603781 
L 120.583657 215.087776 
L 123.955697 229.386606 
L 126.203723 238.297817 
L 128.451749 246.3909 
L 130.699775 253.681462 
L 136.319841 270.805233 
L 138.567867 276.945783 
L 139.69188 279.507982 
L 140.815893 281.629875 
L 141.939906 283.305576 
L 143.063919 284.595947 
L 145.311945 286.508198 
L 147.559972 288.425024 
L 149.807998 290.93751 
L 153.180037 295.193836 
L 154.30405 296.417162 
L 155.428063 297.445218 
L 156.552076 298.26613 
L 157.676089 298.896302 
L 159.924116 299.733524 
L 164.420168 300.976485 
L 170.040234 303.00967 
L 172.28826 303.472186 
L 175.660299 304.106233 
L 179.032338 304.782097 
L 181.280365 304.978191 
L 184.652404 305.211467 
L 186.90043 305.708543 
L 191.396482 307.016844 
L 193.644509 307.377879 
L 197.016548 307.557554 
L 202.636613 307.546406 
L 207.132666 307.323715 
L 210.504705 307.122915 
L 213.876744 307.201536 
L 219.49681 307.532088 
L 222.868849 307.570105 
L 222.868849 307.570105 
" style="fill:none;stroke:#4c00b2;stroke-linecap:round;stroke-width:1.5;"/>
   </g>
   <g id="line2d_24">
    <path clip-path="url(#p3f47ebba77)" d="M 78.602848 307.494952 
L 80.011392 307.330497 
L 81.419936 306.920755 
L 82.828479 306.008502 
L 84.237023 304.182027 
L 85.645566 300.885091 
L 87.05411 295.505771 
L 88.462654 287.546136 
L 89.871197 276.819999 
L 91.279741 263.587037 
L 94.096828 232.708766 
L 95.505372 217.160855 
L 96.913915 202.912874 
L 98.322459 190.774874 
L 99.731003 181.311033 
L 101.139546 174.823632 
L 102.54809 171.359996 
L 103.956633 170.7474 
L 105.365177 172.648162 
L 106.773721 176.608042 
L 108.182264 182.080624 
L 113.816439 207.263945 
L 116.633526 217.340828 
L 120.859157 231.945434 
L 125.084788 247.053341 
L 126.493331 251.589928 
L 127.901875 255.711997 
L 129.310418 259.430586 
L 132.127506 265.998773 
L 137.76168 278.074609 
L 139.170224 280.802306 
L 140.578767 283.224927 
L 141.987311 285.286204 
L 143.395855 286.986938 
L 144.804398 288.377079 
L 147.621485 290.610976 
L 149.030029 291.708962 
L 150.438573 292.957916 
L 151.847116 294.416884 
L 156.072747 299.282329 
L 157.481291 300.541007 
L 158.889834 301.430827 
L 160.298378 301.973931 
L 161.706922 302.263219 
L 165.932552 302.590894 
L 168.74964 302.906595 
L 171.566727 303.577914 
L 175.792358 304.985988 
L 177.200901 305.32113 
L 180.017988 305.634598 
L 184.243619 305.954192 
L 192.694881 307.093648 
L 195.511968 307.266013 
L 198.329055 307.239716 
L 206.780317 306.824315 
L 212.414492 306.809894 
L 218.048666 306.437967 
L 220.865753 306.555527 
L 229.317015 307.48643 
L 233.542646 307.565828 
L 237.768277 307.486314 
L 246.219538 307.164556 
L 257.487887 307.551676 
L 257.487887 307.551676 
" style="fill:none;stroke:#5500aa;stroke-linecap:round;stroke-width:1.5;"/>
   </g>
   <g id="line2d_25">
    <path clip-path="url(#p3f47ebba77)" d="M 78.679147 307.553685 
L 81.042104 307.386908 
L 82.223583 307.117674 
L 83.405061 306.555839 
L 84.58654 305.469116 
L 85.768018 303.518208 
L 86.949497 300.265562 
L 88.130975 295.227708 
L 89.312453 287.978375 
L 90.493932 278.287241 
L 91.67541 266.253231 
L 94.038367 237.532273 
L 96.401324 209.355925 
L 97.582803 198.042027 
L 98.764281 189.396839 
L 99.94576 183.487252 
L 101.127238 179.97197 
L 102.308717 178.233301 
L 103.490195 177.553211 
L 105.853152 177.001575 
L 108.216109 176.077624 
L 109.397588 175.964639 
L 110.579066 176.699693 
L 111.760545 178.741065 
L 112.942023 182.38705 
L 114.123502 187.694333 
L 115.30498 194.462432 
L 117.667937 210.642685 
L 120.030894 226.993868 
L 121.212372 234.266984 
L 122.393851 240.691046 
L 123.575329 246.242801 
L 124.756808 251.003448 
L 125.938286 255.130998 
L 128.301243 262.249652 
L 130.6642 268.688364 
L 133.027157 274.41522 
L 134.208636 276.87195 
L 135.390114 279.039963 
L 136.571593 280.936192 
L 137.753071 282.565499 
L 138.93455 283.911181 
L 140.116028 284.960976 
L 141.297507 285.749479 
L 143.660464 287.010785 
L 144.841942 287.786574 
L 146.02342 288.790207 
L 148.386377 291.340846 
L 150.749334 293.892997 
L 153.112291 295.91975 
L 155.475248 297.507481 
L 156.656727 298.134136 
L 157.838205 298.596116 
L 159.019684 298.863101 
L 161.382641 298.952316 
L 162.564119 298.980166 
L 163.745598 299.159541 
L 164.927076 299.562703 
L 166.108555 300.187189 
L 170.834469 303.18248 
L 172.015947 303.664391 
L 174.378904 304.222891 
L 177.923339 304.710132 
L 180.286296 305.314142 
L 185.01221 306.910737 
L 187.375167 307.292704 
L 189.738124 307.270678 
L 192.101081 306.906982 
L 195.645517 306.142942 
L 198.008474 305.957126 
L 200.37143 306.185094 
L 206.278823 307.241908 
L 208.64178 307.428351 
L 211.004737 307.430819 
L 218.093608 307.116814 
L 222.819522 307.41236 
L 227.545436 307.567163 
L 228.726914 307.568701 
L 228.726914 307.568701 
" style="fill:none;stroke:#5e00a2;stroke-linecap:round;stroke-width:1.5;"/>
   </g>
   <g id="line2d_26">
    <path clip-path="url(#p3f47ebba77)" d="M 78.289889 307.534932 
L 79.955728 307.409517 
L 81.621566 307.02969 
L 83.287405 306.041575 
L 84.953243 303.809849 
L 86.619081 299.414804 
L 88.28492 291.838751 
L 89.950758 280.360813 
L 91.616597 264.998884 
L 93.282435 246.707861 
L 96.614112 208.247852 
L 98.27995 191.72052 
L 99.945789 179.019217 
L 101.611627 171.175737 
L 103.277466 168.515115 
L 104.943304 170.379671 
L 106.609142 175.286579 
L 109.940819 188.154777 
L 118.270011 220.825529 
L 121.601688 234.727018 
L 124.933365 248.793147 
L 126.599204 254.89891 
L 128.265042 259.838899 
L 129.93088 263.546363 
L 131.596719 266.326958 
L 134.928396 271.290544 
L 136.594234 274.285125 
L 141.591749 284.365731 
L 143.257588 287.170429 
L 144.923426 289.495516 
L 146.589265 291.424666 
L 149.920942 294.665613 
L 154.918457 299.197613 
L 156.584295 300.456847 
L 158.250134 301.431045 
L 159.915972 302.095605 
L 161.581811 302.490496 
L 164.913487 302.796401 
L 173.24268 303.147491 
L 179.906033 303.199679 
L 183.23771 303.529435 
L 188.235225 304.338447 
L 191.566902 305.117645 
L 196.564417 306.556586 
L 198.230256 306.826064 
L 203.227771 307.136786 
L 209.891125 307.528055 
L 214.88864 307.564826 
L 219.886155 307.397439 
L 224.883671 307.136123 
L 228.215348 307.22417 
L 231.547024 307.36188 
L 234.878701 307.288501 
L 238.210378 307.143611 
L 241.542055 307.213983 
L 248.205409 307.547584 
L 258.200439 307.583987 
L 269.861308 307.514384 
L 279.856339 307.191655 
L 286.519692 307.539554 
L 289.851369 307.567348 
L 289.851369 307.567348 
" style="fill:none;stroke:#660099;stroke-linecap:round;stroke-width:1.5;"/>
   </g>
   <g id="line2d_27">
    <path clip-path="url(#p3f47ebba77)" d="M 78.443412 307.489861 
L 79.931744 307.298481 
L 81.420076 306.797055 
L 82.908407 305.635507 
L 84.396739 303.242789 
L 85.885071 298.850165 
L 87.373403 291.647858 
L 88.861735 281.073864 
L 90.350066 267.133279 
L 93.32673 232.831413 
L 94.815062 215.632392 
L 96.303394 200.605923 
L 97.791725 188.883956 
L 99.280057 180.931375 
L 100.768389 176.582863 
L 102.256721 175.236281 
L 103.745053 176.111846 
L 105.233384 178.482975 
L 106.721716 181.813327 
L 108.210048 185.78857 
L 109.69838 190.276447 
L 111.186712 195.25295 
L 114.163375 206.58888 
L 121.605034 236.793465 
L 127.558361 260.985592 
L 129.046693 266.224807 
L 130.535025 270.645858 
L 132.023357 274.181615 
L 133.511689 276.918467 
L 135.00002 279.041827 
L 136.488352 280.755071 
L 137.976684 282.214332 
L 140.953348 284.668473 
L 143.930011 286.666765 
L 146.906675 288.514453 
L 148.395007 289.604437 
L 149.883338 290.933121 
L 152.860002 294.205415 
L 154.348334 295.817983 
L 155.836666 297.140222 
L 157.324997 298.084353 
L 158.813329 298.717428 
L 161.789993 299.715901 
L 164.766656 301.060272 
L 167.74332 302.570463 
L 169.231652 303.204567 
L 170.719984 303.688714 
L 172.208315 304.011589 
L 175.184979 304.315923 
L 178.161643 304.631696 
L 181.138306 305.281061 
L 184.11497 305.895884 
L 187.091633 306.083494 
L 197.509956 305.991107 
L 200.486619 306.290806 
L 204.951615 306.821618 
L 207.928278 306.997928 
L 215.369937 307.265402 
L 219.834933 307.502372 
L 224.299928 307.484326 
L 233.229919 307.176673 
L 242.15991 307.56214 
L 248.113237 307.469813 
L 255.554896 307.153004 
L 260.019891 307.37083 
L 264.484887 307.548373 
L 267.46155 307.551913 
L 267.46155 307.551913 
" style="fill:none;stroke:#6e0090;stroke-linecap:round;stroke-width:1.5;"/>
   </g>
   <g id="line2d_28">
    <path clip-path="url(#p3f47ebba77)" d="M 77.222607 307.503445 
L 78.549394 307.363732 
L 79.876181 307.022108 
L 81.202968 306.266596 
L 82.529755 304.744975 
L 83.856542 301.948601 
L 85.183329 297.253183 
L 86.510116 290.040894 
L 87.836903 279.894855 
L 89.16369 266.808964 
L 90.490477 251.32139 
L 93.144051 217.684846 
L 94.470838 202.279077 
L 95.797625 189.343764 
L 97.124412 179.488728 
L 98.451199 172.874772 
L 99.777986 169.343946 
L 101.104773 168.563376 
L 102.43156 170.11162 
L 103.758347 173.5084 
L 105.085134 178.232984 
L 107.738708 189.644492 
L 110.392282 201.215662 
L 118.353004 234.436406 
L 121.006578 245.868764 
L 122.333365 250.995184 
L 123.660152 255.419703 
L 124.986939 258.967188 
L 126.313726 261.595492 
L 127.640513 263.457704 
L 130.294087 266.303833 
L 131.620874 268.03399 
L 132.947661 270.224394 
L 135.601235 275.642098 
L 138.254809 281.284261 
L 140.908383 286.261348 
L 142.23517 288.34347 
L 143.561957 290.081586 
L 144.888744 291.4543 
L 146.215531 292.490945 
L 147.542318 293.269339 
L 155.50304 297.115176 
L 158.156614 298.518817 
L 164.790549 301.650978 
L 170.097697 304.790067 
L 171.424484 305.274328 
L 172.751271 305.526596 
L 174.078058 305.555551 
L 175.404845 305.404865 
L 180.711992 304.462525 
L 182.038779 304.475558 
L 183.365566 304.64413 
L 186.01914 305.338006 
L 189.999501 306.529593 
L 192.653075 306.945742 
L 196.633436 307.086652 
L 204.594158 307.226178 
L 208.574519 307.133653 
L 212.55488 307.305329 
L 216.535241 307.454324 
L 220.515602 307.308459 
L 225.82275 307.073559 
L 233.783472 307.106952 
L 245.724555 307.552976 
L 245.724555 307.552976 
" style="fill:none;stroke:#770088;stroke-linecap:round;stroke-width:1.5;"/>
   </g>
   <g id="line2d_29">
    <path clip-path="url(#p3f47ebba77)" d="M 76.880448 307.547577 
L 79.273761 307.387187 
L 81.667074 306.722447 
L 84.060387 304.563415 
L 86.4537 298.992819 
L 88.847013 287.486374 
L 91.240326 268.380148 
L 93.633639 242.914653 
L 96.026952 215.925807 
L 98.420265 193.711574 
L 100.813579 180.476156 
L 103.206892 176.566357 
L 105.600205 179.495172 
L 107.993518 186.055955 
L 110.386831 194.079801 
L 119.960083 228.882993 
L 122.353396 236.839544 
L 127.140022 253.484475 
L 129.533335 260.922596 
L 131.926648 267.238458 
L 134.319961 272.632962 
L 136.713274 277.210874 
L 139.106587 280.932925 
L 141.4999 284.037477 
L 143.893213 286.880424 
L 146.286526 289.323645 
L 148.679839 290.871397 
L 151.073152 291.509201 
L 153.466465 291.944812 
L 155.859778 292.884869 
L 158.253091 294.398782 
L 160.646404 296.087217 
L 163.039717 297.605241 
L 167.826343 300.132748 
L 172.612969 302.508388 
L 175.006282 303.473633 
L 177.399595 304.130177 
L 179.792908 304.469344 
L 184.579534 304.87283 
L 194.152786 306.275083 
L 198.939412 306.690279 
L 203.726038 307.276015 
L 208.512664 307.539018 
L 213.29929 307.480322 
L 220.47923 307.153153 
L 230.052482 307.380283 
L 234.839108 307.181738 
L 239.625734 307.290097 
L 244.41236 307.517285 
L 251.592299 307.583208 
L 359.291385 307.520649 
L 368.864637 307.180188 
L 380.831202 307.57363 
L 380.831202 307.57363 
" style="fill:none;stroke:#800080;stroke-linecap:round;stroke-width:1.5;"/>
   </g>
   <g id="line2d_30">
    <path clip-path="url(#p3f47ebba77)" d="M 75.575888 307.559518 
L 78.541884 307.401161 
L 80.024883 307.125807 
L 81.507881 306.523809 
L 82.99088 305.317671 
L 84.473878 303.101552 
L 85.956876 299.365097 
L 87.439875 293.579251 
L 88.922873 285.341862 
L 90.405872 274.545882 
L 91.88887 261.506507 
L 96.337865 218.132851 
L 97.820864 206.266606 
L 99.303862 197.401361 
L 100.786861 191.965095 
L 102.269859 189.843407 
L 103.752857 190.424361 
L 105.235856 192.77089 
L 108.201853 198.960286 
L 109.684851 201.5833 
L 111.167849 203.73331 
L 114.133846 207.808041 
L 115.616845 210.408827 
L 117.099843 213.607551 
L 118.582842 217.345958 
L 121.548838 225.7862 
L 125.997834 239.400156 
L 128.96383 249.158119 
L 134.895824 269.222798 
L 136.378822 273.743569 
L 137.861821 277.780108 
L 139.344819 281.22224 
L 140.827818 284.032366 
L 142.310816 286.251212 
L 143.793815 287.971302 
L 145.276813 289.29663 
L 146.759811 290.314607 
L 148.24281 291.093506 
L 151.208807 292.204222 
L 154.174803 293.259094 
L 157.1408 294.728685 
L 161.589796 297.475576 
L 167.521789 301.202744 
L 169.004788 302.032431 
L 170.487786 302.729703 
L 171.970784 303.263104 
L 173.453783 303.636602 
L 176.41978 304.051779 
L 186.800769 304.966902 
L 194.215761 306.119381 
L 197.181757 306.283526 
L 207.562746 306.437596 
L 217.943735 306.025601 
L 220.909732 306.176584 
L 223.875729 306.563954 
L 228.324724 307.153955 
L 231.290721 307.211915 
L 240.188711 306.841098 
L 247.603704 307.125976 
L 253.535697 307.285108 
L 260.950689 307.557904 
L 263.916686 307.572163 
L 263.916686 307.572163 
" style="fill:none;stroke:#880077;stroke-linecap:round;stroke-width:1.5;"/>
   </g>
   <g id="line2d_31">
    <path clip-path="url(#p3f47ebba77)" d="M 75.956609 307.516269 
L 77.461291 307.364932 
L 78.965974 306.938748 
L 80.470657 305.88064 
L 81.97534 303.547754 
L 83.480023 298.969426 
L 84.984706 290.957641 
L 86.489389 278.439896 
L 87.994072 260.970723 
L 89.498754 239.222591 
L 92.50812 191.760166 
L 94.012803 172.114019 
L 95.517486 158.570621 
L 97.022169 152.022351 
L 98.526852 151.840391 
L 100.031535 156.369758 
L 101.536218 163.679146 
L 110.564315 214.155844 
L 113.573681 230.476748 
L 115.078363 237.984058 
L 116.583046 244.514009 
L 118.087729 249.81494 
L 119.592412 253.90392 
L 121.097095 257.040943 
L 124.106461 262.014776 
L 125.611144 264.527021 
L 128.620509 270.224322 
L 131.629875 276.163303 
L 137.648607 287.243179 
L 139.15329 289.919308 
L 140.657972 292.260864 
L 142.162655 294.048131 
L 143.667338 295.200214 
L 145.172021 295.829301 
L 148.181387 296.545764 
L 149.68607 297.060493 
L 154.200118 298.981902 
L 155.704801 299.352603 
L 158.714167 299.862203 
L 160.21885 300.304944 
L 161.723533 300.975857 
L 164.732899 302.628934 
L 166.237581 303.298856 
L 167.742264 303.71977 
L 169.246947 303.886401 
L 172.256313 303.74809 
L 175.265679 303.629176 
L 176.770362 303.746565 
L 179.779727 304.349941 
L 188.807825 306.713554 
L 191.81719 307.142454 
L 194.826556 307.164298 
L 197.835922 306.827099 
L 200.845288 306.439887 
L 203.854654 306.278713 
L 208.368702 306.327862 
L 211.378068 306.511754 
L 220.406165 307.517454 
L 226.424897 307.578448 
L 232.443628 307.452865 
L 238.46236 307.145366 
L 241.471726 307.217778 
L 245.985774 307.434142 
L 248.99514 307.392616 
L 255.013872 307.142123 
L 259.52792 307.357783 
L 264.041969 307.548153 
L 267.051335 307.56104 
L 267.051335 307.56104 
" style="fill:none;stroke:#90006e;stroke-linecap:round;stroke-width:1.5;"/>
   </g>
   <g id="line2d_32">
    <path clip-path="url(#p3f47ebba77)" d="M 74.98252 307.551122 
L 76.609594 307.473725 
L 78.236668 307.240183 
L 79.863742 306.621221 
L 81.490817 305.165561 
L 83.117891 302.124993 
L 84.744965 296.483967 
L 86.372039 287.188932 
L 87.999113 273.586358 
L 89.626188 255.907915 
L 94.50741 195.73866 
L 96.134484 180.766123 
L 97.761558 170.680275 
L 99.388633 165.501286 
L 101.015707 164.635401 
L 102.642781 167.241201 
L 104.269855 172.470387 
L 105.896929 179.593566 
L 107.524004 188.062997 
L 110.778152 207.557626 
L 114.0323 227.486188 
L 115.659374 235.956627 
L 117.286449 242.634043 
L 118.913523 247.359585 
L 120.540597 250.432457 
L 123.794745 254.476674 
L 125.42182 257.05639 
L 127.048894 260.679022 
L 128.675968 265.266024 
L 131.930116 275.073468 
L 133.55719 279.008996 
L 135.184265 281.859767 
L 136.811339 283.730834 
L 138.438413 284.949542 
L 141.692561 286.906321 
L 143.319636 288.17151 
L 144.94671 289.753846 
L 148.200858 293.385826 
L 149.827932 294.986345 
L 151.455006 296.191421 
L 153.082081 296.972318 
L 154.709155 297.444796 
L 157.963303 298.193189 
L 164.4716 300.204725 
L 170.979897 301.591382 
L 174.234045 302.754916 
L 177.488193 304.10732 
L 179.115268 304.638083 
L 180.742342 304.994171 
L 183.99649 305.279509 
L 188.877713 305.335787 
L 193.758935 305.295466 
L 195.386009 305.475511 
L 198.640158 306.236296 
L 201.894306 306.99627 
L 203.52138 307.200828 
L 206.775529 307.268859 
L 211.656751 307.177928 
L 218.165048 307.470702 
L 224.673345 307.580013 
L 234.43579 307.492992 
L 242.571161 307.175247 
L 247.452383 307.380391 
L 252.333606 307.552994 
L 258.841902 307.542372 
L 263.723125 307.346185 
L 268.604348 307.172457 
L 273.48557 307.371721 
L 278.366793 307.551126 
L 281.620941 307.571251 
L 281.620941 307.571251 
" style="fill:none;stroke:#990066;stroke-linecap:round;stroke-width:1.5;"/>
   </g>
   <g id="line2d_33">
    <path clip-path="url(#p3f47ebba77)" d="M 76.636417 307.447997 
L 78.707569 306.843011 
L 80.778721 304.442545 
L 82.849874 297.223729 
L 84.921026 280.743783 
L 86.992179 252.158364 
L 91.134483 176.731777 
L 93.205636 148.958098 
L 95.276788 136.378115 
L 97.34794 138.506435 
L 99.419093 151.065833 
L 103.561397 185.463307 
L 105.63255 200.020754 
L 107.703702 211.866486 
L 109.774854 221.98454 
L 113.917159 240.723648 
L 115.988311 248.872446 
L 118.059464 254.826208 
L 120.130616 258.702562 
L 122.201768 261.987641 
L 124.272921 266.223899 
L 126.344073 271.794294 
L 128.415226 277.811988 
L 130.486378 283.006762 
L 132.55753 286.811823 
L 134.628683 289.590768 
L 136.699835 291.901926 
L 138.770987 293.95126 
L 140.84214 295.735188 
L 142.913292 297.225827 
L 144.984444 298.356261 
L 147.055597 299.070448 
L 155.340206 300.66566 
L 157.411358 301.13263 
L 159.482511 301.332649 
L 163.624815 301.131117 
L 165.695968 301.375182 
L 167.76712 302.215799 
L 171.909425 304.904161 
L 173.980577 305.96 
L 176.05173 306.461162 
L 178.122882 306.496467 
L 180.194034 306.385298 
L 182.265187 306.39324 
L 190.549796 306.955175 
L 196.763253 306.716468 
L 200.905558 306.983276 
L 202.97671 306.969923 
L 207.119015 306.618044 
L 209.190167 306.630424 
L 213.332472 306.989846 
L 221.617081 307.282915 
L 225.759386 307.527492 
L 231.972843 307.576819 
L 236.115148 307.492818 
L 242.328605 307.109432 
L 246.470909 307.26565 
L 250.613214 307.51827 
L 256.826671 307.583312 
L 321.032394 307.513231 
L 329.317003 307.11413 
L 339.672765 307.558937 
L 339.672765 307.558937 
" style="fill:none;stroke:#a2005e;stroke-linecap:round;stroke-width:1.5;"/>
   </g>
   <g id="line2d_34">
    <path clip-path="url(#p3f47ebba77)" d="M 76.699123 307.514896 
L 78.020026 307.392782 
L 79.340929 307.086872 
L 80.661832 306.392327 
L 81.982735 304.953042 
L 83.303638 302.227229 
L 84.62454 297.507034 
L 85.945443 290.030367 
L 87.266346 279.193393 
L 88.587249 264.814923 
L 89.908152 247.348625 
L 93.87086 189.972709 
L 95.191763 174.834114 
L 96.512666 163.863271 
L 97.833569 157.494139 
L 99.154472 155.541258 
L 100.475375 157.33752 
L 101.796277 161.939458 
L 103.11718 168.354486 
L 105.758986 183.486635 
L 109.721694 206.406665 
L 112.3635 220.588654 
L 115.005306 233.234271 
L 116.326209 238.784618 
L 117.647112 243.801259 
L 120.288917 252.579385 
L 122.930723 260.301162 
L 124.251626 263.746154 
L 125.572529 266.770794 
L 126.893431 269.28605 
L 128.214334 271.28908 
L 129.535237 272.87216 
L 132.177043 275.392105 
L 134.818849 277.952695 
L 136.139751 279.447287 
L 138.781557 282.94891 
L 144.065168 290.70646 
L 145.386071 292.430796 
L 146.706974 293.968809 
L 148.027877 295.289608 
L 149.34878 296.377413 
L 150.669683 297.233502 
L 151.990586 297.86995 
L 153.311488 298.296377 
L 154.632391 298.511581 
L 155.953294 298.513507 
L 158.5951 298.03498 
L 159.916003 297.773488 
L 161.236905 297.702741 
L 162.557808 297.945432 
L 163.878711 298.536884 
L 165.199614 299.408894 
L 167.84142 301.382599 
L 169.162323 302.170452 
L 170.483225 302.705437 
L 171.804128 302.993083 
L 174.445934 303.136688 
L 175.766837 303.202044 
L 177.08774 303.378929 
L 178.408642 303.702229 
L 181.050448 304.673307 
L 183.692254 305.62245 
L 186.33406 306.219729 
L 190.296768 306.712168 
L 194.259477 306.973425 
L 200.863991 307.173706 
L 203.505797 307.027973 
L 207.468505 306.717559 
L 210.110311 306.760347 
L 215.393922 307.065792 
L 223.319339 307.285222 
L 227.282048 307.286218 
L 232.565659 307.157382 
L 237.849271 307.424709 
L 243.132882 307.564849 
L 244.453785 307.55701 
L 244.453785 307.55701 
" style="fill:none;stroke:#aa0055;stroke-linecap:round;stroke-width:1.5;"/>
   </g>
   <g id="line2d_35">
    <path clip-path="url(#p3f47ebba77)" d="M 75.554836 307.504233 
L 77.177628 307.313328 
L 78.800421 306.760777 
L 80.423213 305.368396 
L 82.046005 302.298135 
L 83.668798 296.366953 
L 85.29159 286.32108 
L 86.914383 271.395508 
L 88.537175 251.944278 
L 91.78276 207.612852 
L 93.405552 188.578471 
L 95.028344 174.838081 
L 96.651137 167.268766 
L 98.273929 165.506063 
L 99.896721 168.406935 
L 101.519514 174.545585 
L 103.142306 182.550346 
L 106.387891 199.856231 
L 108.010683 207.732832 
L 109.633476 214.595443 
L 111.256268 220.351404 
L 112.87906 225.12201 
L 116.124645 233.376157 
L 117.747437 237.986564 
L 119.37023 243.361268 
L 124.238607 260.794535 
L 125.861399 265.41204 
L 127.484192 269.079433 
L 129.106984 271.954089 
L 130.729776 274.305571 
L 133.975361 278.334029 
L 140.46653 285.966609 
L 143.712115 290.423661 
L 145.334908 292.682201 
L 146.9577 294.642228 
L 148.580492 296.058664 
L 150.203285 296.832622 
L 151.826077 297.065831 
L 155.071662 296.94012 
L 156.694454 297.072454 
L 158.317246 297.502017 
L 159.940039 298.226031 
L 163.185624 300.232611 
L 166.431208 302.205359 
L 168.054001 302.950259 
L 169.676793 303.50597 
L 172.922378 304.230414 
L 179.413547 305.374587 
L 182.659132 305.642948 
L 190.773094 305.871089 
L 195.641471 306.122504 
L 202.13264 306.282195 
L 208.62381 306.602786 
L 218.360564 306.607531 
L 228.097318 307.435929 
L 231.342903 307.354232 
L 236.21128 307.153952 
L 239.456864 307.25596 
L 245.948034 307.55041 
L 255.684788 307.580444 
L 262.175958 307.459745 
L 268.667127 307.156237 
L 271.912712 307.250908 
L 278.403881 307.547103 
L 281.649466 307.55903 
L 281.649466 307.55903 
" style="fill:none;stroke:#b2004d;stroke-linecap:round;stroke-width:1.5;"/>
   </g>
   <g id="line2d_36">
    <path clip-path="url(#p3f47ebba77)" d="M 75.606166 307.540456 
L 78.148537 307.322489 
L 80.690908 306.356577 
L 83.233278 303.107667 
L 85.775649 294.749511 
L 88.31802 278.232944 
L 90.860391 253.115188 
L 93.402762 223.852994 
L 95.945133 198.254427 
L 98.487504 182.412302 
L 101.029875 176.938147 
L 103.572246 178.443716 
L 106.114617 184.054246 
L 108.656988 193.04361 
L 113.74173 215.978686 
L 116.2841 226.022293 
L 121.368842 244.854948 
L 123.911213 254.430033 
L 126.453584 262.468989 
L 128.995955 268.122045 
L 131.538326 272.034326 
L 139.165439 282.132981 
L 141.70781 284.951916 
L 144.250181 287.171223 
L 146.792552 289.193171 
L 154.419664 295.821544 
L 156.962035 297.119135 
L 162.046777 298.82644 
L 167.131519 300.790743 
L 169.67389 301.445684 
L 172.216261 301.80051 
L 177.301003 302.327834 
L 182.385744 303.219087 
L 187.470486 304.331359 
L 195.097599 306.397671 
L 197.63997 306.689311 
L 200.182341 306.472317 
L 205.267083 305.267943 
L 207.809454 304.975486 
L 210.351825 305.11983 
L 217.978937 306.527647 
L 220.521308 306.721837 
L 228.148421 306.722571 
L 238.317905 307.536331 
L 248.487388 307.583979 
L 375.605934 307.541876 
L 388.317789 307.262987 
L 393.402531 307.508602 
L 398.487273 307.5739 
L 398.487273 307.5739 
" style="fill:none;stroke:#bb0044;stroke-linecap:round;stroke-width:1.5;"/>
   </g>
   <g id="line2d_37">
    <path clip-path="url(#p3f47ebba77)" d="M 73.832727 307.522464 
L 75.484614 307.40246 
L 77.1365 307.08845 
L 78.788387 306.351086 
L 80.440273 304.787884 
L 82.09216 301.792265 
L 83.744046 296.600043 
L 85.395933 288.457335 
L 87.04782 276.902661 
L 88.699706 262.073112 
L 93.655366 210.155 
L 95.307252 196.307093 
L 96.959139 186.541553 
L 98.611025 181.225891 
L 100.262912 180.023115 
L 101.914798 182.137862 
L 103.566685 186.597053 
L 105.218571 192.481214 
L 108.522344 205.921685 
L 113.478004 226.176789 
L 115.12989 232.430364 
L 116.781777 238.139025 
L 118.433664 243.130664 
L 120.08555 247.339328 
L 121.737437 250.843379 
L 123.389323 253.840827 
L 133.300642 270.105997 
L 136.604415 275.05623 
L 144.863848 286.873383 
L 146.515735 288.986872 
L 148.167621 290.854264 
L 149.819508 292.421242 
L 151.471394 293.675911 
L 153.123281 294.66626 
L 159.730827 298.097197 
L 163.0346 299.949674 
L 164.686486 300.621902 
L 166.338373 301.01354 
L 167.990259 301.131665 
L 174.597806 300.936724 
L 176.249692 301.212982 
L 177.901579 301.668268 
L 181.205352 302.916171 
L 186.161011 304.837747 
L 189.464784 305.759181 
L 192.768557 306.259926 
L 196.07233 306.403555 
L 201.02799 306.275685 
L 205.98365 306.127088 
L 209.287423 306.201902 
L 222.502515 307.030466 
L 227.458174 307.298188 
L 230.761948 307.286116 
L 235.717607 306.984056 
L 240.673267 306.699207 
L 243.97704 306.747692 
L 248.932699 307.177867 
L 253.888359 307.49931 
L 258.844019 307.527906 
L 272.059111 307.28857 
L 280.318543 307.558677 
L 283.622316 307.561834 
L 283.622316 307.561834 
" style="fill:none;stroke:#c4003b;stroke-linecap:round;stroke-width:1.5;"/>
   </g>
   <g id="line2d_38">
    <path clip-path="url(#p3f47ebba77)" d="M 74.422835 307.525474 
L 76.18696 307.402223 
L 77.951084 307.065968 
L 79.715209 306.251972 
L 81.479333 304.49037 
L 83.243458 301.074086 
L 85.007582 295.126282 
L 86.771706 285.814584 
L 88.535831 272.689807 
L 90.299955 256.030966 
L 95.592329 200.180937 
L 97.356453 186.782689 
L 99.120577 178.817182 
L 100.884702 176.662205 
L 102.648826 179.701791 
L 104.412951 186.562037 
L 109.705324 212.82973 
L 111.469448 219.264618 
L 113.233573 224.081725 
L 118.525946 235.593212 
L 123.818319 249.033339 
L 125.582444 252.801254 
L 127.346568 255.915847 
L 132.638942 263.860452 
L 134.403066 267.041251 
L 136.16719 270.690155 
L 141.459564 282.722874 
L 143.223688 286.313238 
L 144.987813 289.4256 
L 146.751937 292.002589 
L 148.516061 294.017055 
L 150.280186 295.459636 
L 152.04431 296.36299 
L 153.808435 296.838017 
L 157.336683 297.30279 
L 159.100808 297.680103 
L 160.864932 298.262157 
L 167.92143 301.221755 
L 169.685554 301.783329 
L 171.449679 302.20953 
L 173.213803 302.496422 
L 182.034425 303.411921 
L 189.090923 304.881022 
L 192.619172 305.220194 
L 197.911545 305.5334 
L 208.496292 306.743286 
L 213.788665 306.831002 
L 236.722283 307.035275 
L 242.014656 307.345124 
L 245.542905 307.360874 
L 252.599402 307.224428 
L 270.240647 307.573146 
L 277.297144 307.41899 
L 284.353642 307.223291 
L 298.466638 307.563411 
L 298.466638 307.563411 
" style="fill:none;stroke:#cc0033;stroke-linecap:round;stroke-width:1.5;"/>
   </g>
   <g id="line2d_39">
    <path clip-path="url(#p3f47ebba77)" d="M 76.092138 307.511261 
L 78.097925 307.180643 
L 80.103713 305.792502 
L 82.109501 301.265154 
L 84.115288 289.742421 
L 86.121076 266.838655 
L 88.126864 231.376192 
L 90.132652 189.062276 
L 92.138439 151.406901 
L 94.144227 129.101682 
L 96.150015 125.595245 
L 98.155802 136.72708 
L 100.16159 155.447018 
L 102.167378 175.998803 
L 104.173165 194.799203 
L 106.178953 210.020041 
L 108.184741 221.604477 
L 110.190529 230.785015 
L 112.196316 238.818971 
L 114.202104 246.306836 
L 116.207892 253.349006 
L 118.213679 259.773278 
L 120.219467 265.455957 
L 122.225255 270.606445 
L 124.231043 275.35256 
L 126.23683 279.1669 
L 128.242618 281.359831 
L 132.254193 282.939337 
L 134.259981 284.629437 
L 138.271557 289.935311 
L 140.277344 292.156529 
L 142.283132 293.801817 
L 146.294707 296.63151 
L 150.306283 299.847328 
L 152.31207 301.176629 
L 154.317858 302.071768 
L 156.323646 302.628277 
L 158.329434 303.025958 
L 160.335221 303.253103 
L 162.341009 303.209414 
L 164.346797 303.049098 
L 166.352584 303.141402 
L 168.358372 303.647315 
L 172.369948 304.961979 
L 174.375735 305.333096 
L 176.381523 305.452626 
L 182.398886 305.158753 
L 184.404674 305.284716 
L 188.416249 305.984485 
L 190.422037 306.345661 
L 192.427825 306.531423 
L 194.433612 306.460754 
L 198.445188 305.916493 
L 200.450975 305.868438 
L 202.456763 306.116389 
L 206.468339 306.826107 
L 210.479914 307.028548 
L 222.51464 307.565448 
L 226.526216 307.403358 
L 232.543579 306.64781 
L 234.549366 306.626275 
L 238.560942 306.851322 
L 240.56673 306.711194 
L 244.578305 306.145218 
L 246.584093 306.133892 
L 252.601456 306.61414 
L 256.613031 306.814504 
L 262.630394 307.375679 
L 264.636182 307.438146 
L 268.647757 307.255868 
L 272.659333 307.106926 
L 284.694059 307.582286 
L 310.769299 307.552484 
L 314.780875 307.370612 
L 318.79245 307.114362 
L 322.804025 307.244861 
L 326.815601 307.502986 
L 330.827176 307.567652 
L 330.827176 307.567652 
" style="fill:none;stroke:#d4002a;stroke-linecap:round;stroke-width:1.5;"/>
   </g>
   <g id="line2d_40">
    <path clip-path="url(#p3f47ebba77)" d="M 73.91176 307.546094 
L 75.386483 307.468884 
L 76.861206 307.254623 
L 78.335929 306.723125 
L 79.810652 305.53277 
L 81.285375 303.122727 
L 82.760098 298.710094 
L 84.234821 291.401458 
L 85.709544 280.44671 
L 87.184267 265.583068 
L 88.658989 247.328851 
L 91.608435 206.789481 
L 93.083158 188.691242 
L 94.557881 174.581666 
L 96.032604 165.523444 
L 97.507327 161.689454 
L 98.98205 162.483748 
L 100.456773 166.833352 
L 101.931496 173.524152 
L 104.880942 189.853885 
L 107.830388 206.114293 
L 110.779834 220.620163 
L 113.72928 233.244471 
L 116.678726 244.201275 
L 119.628172 253.86569 
L 122.577618 262.429227 
L 124.052341 266.228783 
L 125.527064 269.635866 
L 127.001787 272.597622 
L 128.47651 275.072437 
L 129.951233 277.048299 
L 131.425956 278.568765 
L 132.900679 279.74549 
L 137.324848 282.750468 
L 138.799571 283.937588 
L 140.274294 285.277396 
L 143.22374 288.393352 
L 147.647909 293.409194 
L 149.122632 294.768321 
L 150.597355 295.854915 
L 153.546801 297.470613 
L 159.445693 300.559573 
L 160.920416 300.971585 
L 162.395139 301.06764 
L 166.819308 300.775111 
L 168.294031 301.068861 
L 169.768754 301.648237 
L 174.192923 303.880375 
L 175.667646 304.423609 
L 177.142369 304.804074 
L 178.617092 305.023727 
L 180.091815 305.076471 
L 181.566538 304.952287 
L 183.041261 304.661922 
L 187.46543 303.477243 
L 188.940153 303.255003 
L 191.889599 303.186567 
L 194.839045 303.377557 
L 197.788491 303.756004 
L 203.687383 304.811652 
L 211.060998 305.625181 
L 219.909336 307.306948 
L 222.858782 307.509626 
L 228.757674 307.580719 
L 236.131289 307.468631 
L 240.555458 307.149366 
L 244.979627 306.862649 
L 247.929073 306.92062 
L 258.252133 307.55463 
L 261.201579 307.56885 
L 261.201579 307.56885 
" style="fill:none;stroke:#dd0022;stroke-linecap:round;stroke-width:1.5;"/>
   </g>
   <g id="line2d_41">
    <path clip-path="url(#p3f47ebba77)" d="M 75.005547 307.483189 
L 76.490796 307.231401 
L 77.976046 306.483441 
L 79.461295 304.554455 
L 80.946545 300.21921 
L 82.431794 291.728597 
L 83.917044 277.24833 
L 85.402293 255.777898 
L 86.887542 228.184172 
L 89.858041 168.827524 
L 91.343291 146.365639 
L 92.82854 132.982196 
L 94.31379 128.860532 
L 95.799039 132.179207 
L 97.284289 140.37915 
L 98.769538 151.302452 
L 101.740037 176.930308 
L 104.710536 204.430355 
L 106.195785 217.213283 
L 107.681035 228.1223 
L 109.166284 236.588853 
L 110.651534 242.676698 
L 112.136783 247.008967 
L 115.107282 253.557835 
L 118.077781 260.119599 
L 121.04828 266.85598 
L 122.533529 269.968637 
L 125.504028 275.505384 
L 128.474527 281.053585 
L 131.445026 286.628197 
L 132.930275 288.8472 
L 134.415525 290.463754 
L 135.900774 291.551719 
L 138.871273 293.163764 
L 140.356523 294.163698 
L 143.327022 296.526223 
L 144.812271 297.471429 
L 146.29752 298.048244 
L 147.78277 298.303081 
L 150.753269 298.646648 
L 152.238518 299.110628 
L 153.723768 299.843754 
L 158.179516 302.598088 
L 159.664766 303.311487 
L 161.150015 303.844607 
L 162.635264 304.207591 
L 164.120514 304.404297 
L 165.605763 304.429401 
L 168.576262 304.084182 
L 170.061512 303.90262 
L 171.546761 303.872015 
L 173.032011 304.044568 
L 180.458258 305.663216 
L 184.914006 306.46026 
L 187.884505 306.961884 
L 189.369754 307.064213 
L 192.340253 306.952937 
L 195.310752 306.755322 
L 198.281251 306.835461 
L 205.707498 307.496444 
L 208.677997 307.487256 
L 219.074743 307.075151 
L 223.530492 306.995675 
L 232.441989 306.804654 
L 235.412487 306.866492 
L 239.868236 307.219331 
L 242.838735 307.427641 
L 245.809234 307.431239 
L 253.235481 307.131904 
L 262.146978 307.562053 
L 263.632227 307.553755 
L 263.632227 307.553755 
" style="fill:none;stroke:#e60019;stroke-linecap:round;stroke-width:1.5;"/>
   </g>
   <g id="line2d_42">
    <path clip-path="url(#p3f47ebba77)" d="M 74.084864 307.461181 
L 75.573375 307.230272 
L 77.061885 306.648374 
L 78.550396 305.329282 
L 80.038907 302.630774 
L 81.527417 297.646799 
L 83.015928 289.337049 
L 84.504439 276.835439 
L 85.992949 259.881464 
L 87.48146 239.198788 
L 90.458481 194.6478 
L 91.946992 176.045557 
L 93.435502 162.846111 
L 94.924013 155.963629 
L 96.412524 155.079768 
L 97.901034 158.969135 
L 99.389545 166.052001 
L 100.878056 174.913174 
L 106.832098 213.779831 
L 108.320609 222.463744 
L 109.809119 230.066957 
L 111.29763 236.419277 
L 112.786141 241.555842 
L 114.274651 245.678181 
L 115.763162 249.067392 
L 118.740183 254.750799 
L 121.717204 260.400889 
L 124.694226 266.871972 
L 129.159758 277.078803 
L 130.648268 280.154469 
L 132.136779 282.954683 
L 133.62529 285.434971 
L 135.1138 287.528156 
L 136.602311 289.14673 
L 138.090821 290.21817 
L 139.579332 290.735433 
L 141.067843 290.795226 
L 144.044864 290.407166 
L 145.533375 290.458377 
L 147.021885 290.895433 
L 148.510396 291.732243 
L 149.998906 292.876912 
L 154.464438 296.783797 
L 155.952949 297.889564 
L 157.44146 298.81315 
L 160.418481 300.212993 
L 166.372523 302.584422 
L 167.861034 302.944481 
L 169.349545 303.059587 
L 170.838055 302.943969 
L 173.815077 302.475981 
L 175.303587 302.413256 
L 176.792098 302.587178 
L 178.280609 302.989698 
L 182.74614 304.647424 
L 184.234651 305.025978 
L 185.723162 305.244862 
L 188.700183 305.316213 
L 191.677204 305.288379 
L 193.165715 305.390175 
L 196.142736 305.937817 
L 200.608268 306.977804 
L 202.096779 307.166997 
L 205.0738 307.221139 
L 209.539332 306.818119 
L 212.516353 306.578807 
L 215.493374 306.59969 
L 219.958906 307.064165 
L 222.935928 307.357684 
L 225.912949 307.472997 
L 230.378481 307.349761 
L 234.844013 307.180351 
L 239.309545 307.287378 
L 243.775077 307.341243 
L 251.21763 307.202607 
L 261.637204 307.561674 
L 263.125715 307.541663 
L 263.125715 307.541663 
" style="fill:none;stroke:#ee0011;stroke-linecap:round;stroke-width:1.5;"/>
   </g>
   <g id="line2d_43">
    <path clip-path="url(#p3f47ebba77)" d="M 74.075091 307.503498 
L 76.274815 307.22208 
L 78.474538 306.217434 
L 80.674261 303.287571 
L 82.873984 296.298551 
L 85.073707 282.698531 
L 87.27343 261.227743 
L 91.672877 206.862679 
L 93.8726 186.517382 
L 96.072323 176.577115 
L 98.272046 175.903513 
L 100.471769 180.707205 
L 102.671493 187.754091 
L 104.871216 195.641636 
L 111.470385 220.667615 
L 113.670108 227.79572 
L 115.869832 233.69708 
L 120.269278 243.658702 
L 122.469001 249.271577 
L 129.068171 268.750514 
L 131.267894 274.256512 
L 133.467617 278.996341 
L 135.66734 283.086552 
L 137.867063 286.517411 
L 140.066787 289.277992 
L 142.26651 291.493885 
L 144.466233 293.346425 
L 146.665956 294.912328 
L 148.865679 296.135072 
L 151.065402 296.954001 
L 157.664572 298.387463 
L 162.064018 299.907296 
L 164.263741 300.669895 
L 166.463465 301.294747 
L 170.862911 302.094154 
L 173.062634 302.45685 
L 175.262357 302.962732 
L 179.661804 304.278934 
L 181.861527 304.785043 
L 184.06125 305.0517 
L 188.460696 305.109785 
L 190.66042 305.145071 
L 192.860143 305.308713 
L 199.459312 306.196762 
L 201.659035 306.285342 
L 208.258205 306.272493 
L 219.256821 307.10599 
L 225.85599 307.268277 
L 232.45516 307.538597 
L 243.453776 307.583976 
L 272.050177 307.532294 
L 283.048793 307.216914 
L 294.047409 307.572454 
L 324.843533 307.580688 
L 331.442703 307.49228 
L 340.241595 307.202139 
L 353.439934 307.564774 
L 353.439934 307.564774 
" style="fill:none;stroke:#f60008;stroke-linecap:round;stroke-width:1.5;"/>
   </g>
   <g id="patch_3">
    <path d="M 57.6 307.584 
L 57.6 41.472 
" style="fill:none;stroke:#ffffff;stroke-linecap:square;stroke-linejoin:miter;stroke-width:1.25;"/>
   </g>
   <g id="patch_4">
    <path d="M 414.72 307.584 
L 414.72 41.472 
" style="fill:none;stroke:#ffffff;stroke-linecap:square;stroke-linejoin:miter;stroke-width:1.25;"/>
   </g>
   <g id="patch_5">
    <path d="M 57.6 307.584 
L 414.72 307.584 
" style="fill:none;stroke:#ffffff;stroke-linecap:square;stroke-linejoin:miter;stroke-width:1.25;"/>
   </g>
   <g id="patch_6">
    <path d="M 57.6 41.472 
L 414.72 41.472 
" style="fill:none;stroke:#ffffff;stroke-linecap:square;stroke-linejoin:miter;stroke-width:1.25;"/>
   </g>
   <g id="text_17">
    <!-- Gain distributions along maximal performance -->
    <defs>
     <path d="M 41.21875 28.078125 
L 41.21875 36.46875 
L 71.53125 36.53125 
L 71.53125 9.96875 
Q 64.546875 4.390625 57.125 1.578125 
Q 49.703125 -1.21875 41.890625 -1.21875 
Q 31.34375 -1.21875 22.71875 3.296875 
Q 14.109375 7.8125 9.71875 16.359375 
Q 5.328125 24.90625 5.328125 35.453125 
Q 5.328125 45.90625 9.6875 54.953125 
Q 14.0625 64.015625 22.265625 68.40625 
Q 30.46875 72.796875 41.15625 72.796875 
Q 48.921875 72.796875 55.1875 70.28125 
Q 61.46875 67.78125 65.03125 63.28125 
Q 68.609375 58.796875 70.453125 51.5625 
L 61.921875 49.21875 
Q 60.296875 54.6875 57.90625 57.8125 
Q 55.515625 60.9375 51.0625 62.8125 
Q 46.625 64.703125 41.21875 64.703125 
Q 34.71875 64.703125 29.984375 62.71875 
Q 25.25 60.75 22.34375 57.515625 
Q 19.4375 54.296875 17.828125 50.4375 
Q 15.09375 43.796875 15.09375 36.03125 
Q 15.09375 26.46875 18.390625 20.015625 
Q 21.6875 13.578125 27.984375 10.453125 
Q 34.28125 7.328125 41.359375 7.328125 
Q 47.515625 7.328125 53.375 9.6875 
Q 59.234375 12.0625 62.25 14.75 
L 62.25 28.078125 
z
" id="ArialMT-71"/>
     <path d="M 25.78125 7.859375 
L 27.046875 0.09375 
Q 23.34375 -0.6875 20.40625 -0.6875 
Q 15.625 -0.6875 12.984375 0.828125 
Q 10.359375 2.34375 9.28125 4.8125 
Q 8.203125 7.28125 8.203125 15.1875 
L 8.203125 45.015625 
L 1.765625 45.015625 
L 1.765625 51.859375 
L 8.203125 51.859375 
L 8.203125 64.703125 
L 16.9375 69.96875 
L 16.9375 51.859375 
L 25.78125 51.859375 
L 25.78125 45.015625 
L 16.9375 45.015625 
L 16.9375 14.703125 
Q 16.9375 10.9375 17.40625 9.859375 
Q 17.875 8.796875 18.921875 8.15625 
Q 19.96875 7.515625 21.921875 7.515625 
Q 23.390625 7.515625 25.78125 7.859375 
z
" id="ArialMT-116"/>
     <path d="M 40.578125 0 
L 40.578125 7.625 
Q 34.515625 -1.171875 24.125 -1.171875 
Q 19.53125 -1.171875 15.546875 0.578125 
Q 11.578125 2.34375 9.640625 5 
Q 7.71875 7.671875 6.9375 11.53125 
Q 6.390625 14.109375 6.390625 19.734375 
L 6.390625 51.859375 
L 15.1875 51.859375 
L 15.1875 23.09375 
Q 15.1875 16.21875 15.71875 13.8125 
Q 16.546875 10.359375 19.234375 8.375 
Q 21.921875 6.390625 25.875 6.390625 
Q 29.828125 6.390625 33.296875 8.421875 
Q 36.765625 10.453125 38.203125 13.9375 
Q 39.65625 17.4375 39.65625 24.078125 
L 39.65625 51.859375 
L 48.4375 51.859375 
L 48.4375 0 
z
" id="ArialMT-117"/>
     <path d="M 6.390625 0 
L 6.390625 71.578125 
L 15.1875 71.578125 
L 15.1875 0 
z
" id="ArialMT-108"/>
     <path d="M 6.59375 0 
L 6.59375 51.859375 
L 14.453125 51.859375 
L 14.453125 44.578125 
Q 16.890625 48.390625 20.9375 50.703125 
Q 25 53.03125 30.171875 53.03125 
Q 35.9375 53.03125 39.625 50.640625 
Q 43.3125 48.25 44.828125 43.953125 
Q 50.984375 53.03125 60.84375 53.03125 
Q 68.5625 53.03125 72.703125 48.75 
Q 76.859375 44.484375 76.859375 35.59375 
L 76.859375 0 
L 68.109375 0 
L 68.109375 32.671875 
Q 68.109375 37.9375 67.25 40.25 
Q 66.40625 42.578125 64.15625 43.984375 
Q 61.921875 45.40625 58.890625 45.40625 
Q 53.421875 45.40625 49.796875 41.765625 
Q 46.1875 38.140625 46.1875 30.125 
L 46.1875 0 
L 37.40625 0 
L 37.40625 33.6875 
Q 37.40625 39.546875 35.25 42.46875 
Q 33.109375 45.40625 28.21875 45.40625 
Q 24.515625 45.40625 21.359375 43.453125 
Q 18.21875 41.5 16.796875 37.734375 
Q 15.375 33.984375 15.375 26.90625 
L 15.375 0 
z
" id="ArialMT-109"/>
     <path d="M 0.734375 0 
L 19.671875 26.953125 
L 2.15625 51.859375 
L 13.140625 51.859375 
L 21.09375 39.703125 
Q 23.34375 36.234375 24.703125 33.890625 
Q 26.859375 37.109375 28.65625 39.59375 
L 37.40625 51.859375 
L 47.90625 51.859375 
L 29.984375 27.4375 
L 49.265625 0 
L 38.484375 0 
L 27.828125 16.109375 
L 25 20.453125 
L 11.375 0 
z
" id="ArialMT-120"/>
     <path d="M 8.6875 0 
L 8.6875 45.015625 
L 0.921875 45.015625 
L 0.921875 51.859375 
L 8.6875 51.859375 
L 8.6875 57.375 
Q 8.6875 62.59375 9.625 65.140625 
Q 10.890625 68.5625 14.078125 70.671875 
Q 17.28125 72.796875 23.046875 72.796875 
Q 26.765625 72.796875 31.25 71.921875 
L 29.9375 64.265625 
Q 27.203125 64.75 24.75 64.75 
Q 20.75 64.75 19.09375 63.03125 
Q 17.4375 61.328125 17.4375 56.640625 
L 17.4375 51.859375 
L 27.546875 51.859375 
L 27.546875 45.015625 
L 17.4375 45.015625 
L 17.4375 0 
z
" id="ArialMT-102"/>
     <path d="M 40.4375 19 
L 49.078125 17.875 
Q 47.65625 8.9375 41.8125 3.875 
Q 35.984375 -1.171875 27.484375 -1.171875 
Q 16.84375 -1.171875 10.375 5.78125 
Q 3.90625 12.75 3.90625 25.734375 
Q 3.90625 34.125 6.6875 40.421875 
Q 9.46875 46.734375 15.15625 49.875 
Q 20.84375 53.03125 27.546875 53.03125 
Q 35.984375 53.03125 41.359375 48.75 
Q 46.734375 44.484375 48.25 36.625 
L 39.703125 35.296875 
Q 38.484375 40.53125 35.375 43.15625 
Q 32.28125 45.796875 27.875 45.796875 
Q 21.234375 45.796875 17.078125 41.03125 
Q 12.9375 36.28125 12.9375 25.984375 
Q 12.9375 15.53125 16.9375 10.796875 
Q 20.953125 6.0625 27.390625 6.0625 
Q 32.5625 6.0625 36.03125 9.234375 
Q 39.5 12.40625 40.4375 19 
z
" id="ArialMT-99"/>
    </defs>
    <g style="fill:#262626;" transform="translate(165.57177 114.269519)scale(0.12 -0.12)">
     <use xlink:href="#ArialMT-71"/>
     <use x="77.783203" xlink:href="#ArialMT-97"/>
     <use x="133.398438" xlink:href="#ArialMT-105"/>
     <use x="155.615234" xlink:href="#ArialMT-110"/>
     <use x="211.230469" xlink:href="#ArialMT-32"/>
     <use x="239.013672" xlink:href="#ArialMT-100"/>
     <use x="294.628906" xlink:href="#ArialMT-105"/>
     <use x="316.845703" xlink:href="#ArialMT-115"/>
     <use x="366.845703" xlink:href="#ArialMT-116"/>
     <use x="394.628906" xlink:href="#ArialMT-114"/>
     <use x="427.929688" xlink:href="#ArialMT-105"/>
     <use x="450.146484" xlink:href="#ArialMT-98"/>
     <use x="505.761719" xlink:href="#ArialMT-117"/>
     <use x="561.376953" xlink:href="#ArialMT-116"/>
     <use x="589.160156" xlink:href="#ArialMT-105"/>
     <use x="611.376953" xlink:href="#ArialMT-111"/>
     <use x="666.992188" xlink:href="#ArialMT-110"/>
     <use x="722.607422" xlink:href="#ArialMT-115"/>
     <use x="772.607422" xlink:href="#ArialMT-32"/>
     <use x="800.390625" xlink:href="#ArialMT-97"/>
     <use x="856.005859" xlink:href="#ArialMT-108"/>
     <use x="878.222656" xlink:href="#ArialMT-111"/>
     <use x="933.837891" xlink:href="#ArialMT-110"/>
     <use x="989.453125" xlink:href="#ArialMT-103"/>
     <use x="1045.068359" xlink:href="#ArialMT-32"/>
     <use x="1072.851562" xlink:href="#ArialMT-109"/>
     <use x="1156.152344" xlink:href="#ArialMT-97"/>
     <use x="1211.767578" xlink:href="#ArialMT-120"/>
     <use x="1261.767578" xlink:href="#ArialMT-105"/>
     <use x="1283.984375" xlink:href="#ArialMT-109"/>
     <use x="1367.285156" xlink:href="#ArialMT-97"/>
     <use x="1422.900391" xlink:href="#ArialMT-108"/>
     <use x="1445.117188" xlink:href="#ArialMT-32"/>
     <use x="1472.900391" xlink:href="#ArialMT-112"/>
     <use x="1528.515625" xlink:href="#ArialMT-101"/>
     <use x="1584.130859" xlink:href="#ArialMT-114"/>
     <use x="1617.431641" xlink:href="#ArialMT-102"/>
     <use x="1645.214844" xlink:href="#ArialMT-111"/>
     <use x="1700.830078" xlink:href="#ArialMT-114"/>
     <use x="1734.130859" xlink:href="#ArialMT-109"/>
     <use x="1817.431641" xlink:href="#ArialMT-97"/>
     <use x="1873.046875" xlink:href="#ArialMT-110"/>
     <use x="1928.662109" xlink:href="#ArialMT-99"/>
     <use x="1978.662109" xlink:href="#ArialMT-101"/>
    </g>
    <!--  for given external input std. dev., -->
    <defs>
     <path d="M 21 0 
L 1.265625 51.859375 
L 10.546875 51.859375 
L 21.6875 20.796875 
Q 23.484375 15.765625 25 10.359375 
Q 26.171875 14.453125 28.265625 20.21875 
L 39.796875 51.859375 
L 48.828125 51.859375 
L 29.203125 0 
z
" id="ArialMT-118"/>
     <path d="M 8.890625 0 
L 8.890625 10.015625 
L 18.890625 10.015625 
L 18.890625 0 
Q 18.890625 -5.515625 16.9375 -8.90625 
Q 14.984375 -12.3125 10.75 -14.15625 
L 8.296875 -10.40625 
Q 11.078125 -9.1875 12.390625 -6.8125 
Q 13.71875 -4.4375 13.875 0 
z
" id="ArialMT-44"/>
    </defs>
    <g style="fill:#262626;" transform="translate(165.57177 127.277894)scale(0.12 -0.12)">
     <use xlink:href="#ArialMT-32"/>
     <use x="27.783203" xlink:href="#ArialMT-102"/>
     <use x="55.566406" xlink:href="#ArialMT-111"/>
     <use x="111.181641" xlink:href="#ArialMT-114"/>
     <use x="144.482422" xlink:href="#ArialMT-32"/>
     <use x="172.265625" xlink:href="#ArialMT-103"/>
     <use x="227.880859" xlink:href="#ArialMT-105"/>
     <use x="250.097656" xlink:href="#ArialMT-118"/>
     <use x="300.097656" xlink:href="#ArialMT-101"/>
     <use x="355.712891" xlink:href="#ArialMT-110"/>
     <use x="411.328125" xlink:href="#ArialMT-32"/>
     <use x="439.111328" xlink:href="#ArialMT-101"/>
     <use x="494.726562" xlink:href="#ArialMT-120"/>
     <use x="544.726562" xlink:href="#ArialMT-116"/>
     <use x="572.509766" xlink:href="#ArialMT-101"/>
     <use x="628.125" xlink:href="#ArialMT-114"/>
     <use x="661.425781" xlink:href="#ArialMT-110"/>
     <use x="717.041016" xlink:href="#ArialMT-97"/>
     <use x="772.65625" xlink:href="#ArialMT-108"/>
     <use x="794.873047" xlink:href="#ArialMT-32"/>
     <use x="822.65625" xlink:href="#ArialMT-105"/>
     <use x="844.873047" xlink:href="#ArialMT-110"/>
     <use x="900.488281" xlink:href="#ArialMT-112"/>
     <use x="956.103516" xlink:href="#ArialMT-117"/>
     <use x="1011.71875" xlink:href="#ArialMT-116"/>
     <use x="1039.501953" xlink:href="#ArialMT-32"/>
     <use x="1067.285156" xlink:href="#ArialMT-115"/>
     <use x="1117.285156" xlink:href="#ArialMT-116"/>
     <use x="1145.068359" xlink:href="#ArialMT-100"/>
     <use x="1200.683594" xlink:href="#ArialMT-46"/>
     <use x="1228.466797" xlink:href="#ArialMT-32"/>
     <use x="1256.25" xlink:href="#ArialMT-100"/>
     <use x="1311.865234" xlink:href="#ArialMT-101"/>
     <use x="1367.480469" xlink:href="#ArialMT-118"/>
     <use x="1417.371094" xlink:href="#ArialMT-46"/>
     <use x="1445.154297" xlink:href="#ArialMT-44"/>
    </g>
    <!--  from 0 (blue) to 1.5 (red). -->
    <defs>
     <path d="M 23.390625 -21.046875 
Q 16.109375 -11.859375 11.078125 0.4375 
Q 6.0625 12.75 6.0625 25.921875 
Q 6.0625 37.546875 9.8125 48.1875 
Q 14.203125 60.546875 23.390625 72.796875 
L 29.6875 72.796875 
Q 23.78125 62.640625 21.875 58.296875 
Q 18.890625 51.5625 17.1875 44.234375 
Q 15.09375 35.109375 15.09375 25.875 
Q 15.09375 2.390625 29.6875 -21.046875 
z
" id="ArialMT-40"/>
     <path d="M 12.359375 -21.046875 
L 6.0625 -21.046875 
Q 20.65625 2.390625 20.65625 25.875 
Q 20.65625 35.0625 18.5625 44.09375 
Q 16.890625 51.421875 13.921875 58.15625 
Q 12.015625 62.546875 6.0625 72.796875 
L 12.359375 72.796875 
Q 21.53125 60.546875 25.921875 48.1875 
Q 29.6875 37.546875 29.6875 25.921875 
Q 29.6875 12.75 24.625 0.4375 
Q 19.578125 -11.859375 12.359375 -21.046875 
z
" id="ArialMT-41"/>
    </defs>
    <g style="fill:#262626;" transform="translate(165.57177 140.286269)scale(0.12 -0.12)">
     <use xlink:href="#ArialMT-32"/>
     <use x="27.783203" xlink:href="#ArialMT-102"/>
     <use x="55.566406" xlink:href="#ArialMT-114"/>
     <use x="88.867188" xlink:href="#ArialMT-111"/>
     <use x="144.482422" xlink:href="#ArialMT-109"/>
     <use x="227.783203" xlink:href="#ArialMT-32"/>
     <use x="255.566406" xlink:href="#ArialMT-48"/>
     <use x="311.181641" xlink:href="#ArialMT-32"/>
     <use x="338.964844" xlink:href="#ArialMT-40"/>
     <use x="372.265625" xlink:href="#ArialMT-98"/>
     <use x="427.880859" xlink:href="#ArialMT-108"/>
     <use x="450.097656" xlink:href="#ArialMT-117"/>
     <use x="505.712891" xlink:href="#ArialMT-101"/>
     <use x="561.328125" xlink:href="#ArialMT-41"/>
     <use x="594.628906" xlink:href="#ArialMT-32"/>
     <use x="622.412109" xlink:href="#ArialMT-116"/>
     <use x="650.195312" xlink:href="#ArialMT-111"/>
     <use x="705.810547" xlink:href="#ArialMT-32"/>
     <use x="733.59375" xlink:href="#ArialMT-49"/>
     <use x="789.208984" xlink:href="#ArialMT-46"/>
     <use x="816.992188" xlink:href="#ArialMT-53"/>
     <use x="872.607422" xlink:href="#ArialMT-32"/>
     <use x="900.390625" xlink:href="#ArialMT-40"/>
     <use x="933.691406" xlink:href="#ArialMT-114"/>
     <use x="966.992188" xlink:href="#ArialMT-101"/>
     <use x="1022.607422" xlink:href="#ArialMT-100"/>
     <use x="1078.222656" xlink:href="#ArialMT-41"/>
     <use x="1111.523438" xlink:href="#ArialMT-46"/>
    </g>
   </g>
  </g>
 </g>
 <defs>
  <clipPath id="p3f47ebba77">
   <rect height="266.112" width="357.12" x="57.6" y="41.472"/>
  </clipPath>
 </defs>
</svg>
